<?xml version="1.0" encoding="utf-8"?>
<!-- Generator: Adobe Illustrator 19.0.0, SVG Export Plug-In . SVG Version: 6.00 Build 0)  -->
<svg version="1.1" id="Layer_1" xmlns="http://www.w3.org/2000/svg" xmlns:xlink="http://www.w3.org/1999/xlink" x="0px" y="0px"
	 viewBox="0 0 841.9 595.3" style="enable-background:new 0 0 841.9 595.3;" xml:space="preserve">
<style type="text/css">
	.st0{fill:#FFFFFF;}
	.st1{fill:#243046;}
	.st2{fill:#FF6290;}
	.st3{fill:#A2B5DB;}
	.st4{fill:#DD366D;}
</style>
<g id="XMLID_1_">
	<g id="XMLID_3_">
		<g id="XMLID_48_">
			<g id="XMLID_63_">
				<path id="XMLID_67_" class="st0" d="M420.3,260.9c-7-3.8-16-11-18.6-18.7c-1.5-4.5-0.6-7.2,0.4-8.7c1.2-1.7,3.3-2.7,5.8-2.7
					c4.3,0,9.2,2.8,11.9,7.3c2.5-5.6,7.8-13.5,18.7-16.2c1.1-0.3,2-0.4,2.9-0.4c3.2,0,4.2,2,4.5,2.8c2.7,7.6-16.5,30.8-23.4,36.4
					l-1,0.8L420.3,260.9z"/>
				<path id="XMLID_61_" class="st1" d="M441.5,223.5c10.6,0-11.7,28.9-20.2,35.6c-7.2-3.9-15.4-10.9-17.7-17.6
					c-2-6,0.6-8.7,4.4-8.7c4.7,0,11.1,4.3,11.9,11.5c0,0,3.1-16.4,19.1-20.5C440,223.6,440.8,223.5,441.5,223.5 M441.5,219.5
					c-1,0-2.1,0.2-3.4,0.5c-9.8,2.5-15.4,8.9-18.5,14.4c-3.2-3.5-7.6-5.5-11.6-5.5c-3.2,0-5.8,1.3-7.4,3.5
					c-1.3,1.8-2.5,5.2-0.7,10.5c2.8,8.2,12.2,15.8,19.5,19.8l2.3,1.3l2.1-1.7c6.1-4.9,27.4-29.1,24.1-38.6
					C447,221.1,444.6,219.5,441.5,219.5L441.5,219.5z"/>
			</g>
		</g>
		<path id="XMLID_13_" class="st0" d="M510.2,343.5l-1-0.5l0-1.1c0-0.2-0.1-22.2-10.8-44c-14.1-28.9-39.2-43.5-74.5-43.5H418
			c-35.3,0-60.4,14.6-74.5,43.5c-10.6,21.7-10.8,43.7-10.8,44l0,1.1l-1,0.5c-2.5,1.1-12.4,9.2-14.8,21.3c-1.9,10.1,1.9,20,11.3,29.6
			c26.2,26.6,89.9,27.3,90.5,27.3h4.4c0.6,0,64.3-0.7,90.5-27.3c9.4-9.6,13.2-19.5,11.3-29.6C522.6,352.7,512.6,344.6,510.2,343.5z"
			/>
		<path id="XMLID_66_" class="st2" d="M483.5,272l0.2-0.1c35.2-20.2,56-61.4,61.6-73.5l0.1-0.3l-0.3,0c-14.8-2.2-25.1-2.7-33.5-1.5
			c-11.8,1.7-22.9,9.9-31.2,23.1c-7.7,12.2-12.2,27.1-12.5,41.1l0,0.2l0.1,0.1c5.6,3,10.7,6.6,15.4,10.9L483.5,272z"/>
		<path id="XMLID_16_" class="st0" d="M600.2,189.6c-3.6-10.3-13.3-18.9-27.3-24.1c-24.1-8.9-55.3-6-77.8,7.3
			c-35.4,20.8-42.9,71.4-44.1,81.3l0,0.2l0.2,0.1c4.4,1.2,8.8,2.8,12.8,4.6l0.3,0.2l0-0.4c1.2-28.6,19.3-61.9,46.6-65.7
			c14.9-2.1,33.8,1.3,50.5,4.2c17.6,3.1,34.2,6.1,38.5,1C601.6,196.6,601.6,193.7,600.2,189.6z"/>
		<path id="XMLID_12_" class="st0" d="M330.9,193.1c27.3,3.9,45.5,37.1,46.6,65.7l0,0.4l0.3-0.2c4.1-1.9,8.4-3.4,12.8-4.6l0.2-0.1
			l0-0.2c-1.2-9.9-8.7-60.5-44.1-81.3c-22.5-13.2-53.8-16.2-77.8-7.3c-14.1,5.2-23.8,13.7-27.3,24.1c-1.4,4.1-1.4,7,0.1,8.7
			c4.3,5.1,20.9,2.1,38.5-1C297,194.3,316,191,330.9,193.1z"/>
		<path id="XMLID_8_" class="st3" d="M350.6,280.2l0.2,0.1l0.1-0.2c1.5-1.9,3.1-3.7,4.7-5.4l0.2-0.2l-0.3-0.2
			c-37.2-21.9-58.6-66.8-62.5-75.6l-0.1-0.2l-0.2,0c-3.9,0.6-7.7,1.3-11.9,2l-2.5,0.4l0.2,0.3C283.6,211.1,310.5,260.1,350.6,280.2z
			"/>
		<g id="XMLID_5_">
			<path id="XMLID_29_" class="st3" d="M464.4,258.8l0,0.4L464,259c-0.1,0-0.2-0.1-0.3-0.1L464.4,258.8z"/>
			<path id="XMLID_24_" class="st3" d="M511,183.1c14.9-2.1,33.8,1.3,50.5,4.2c17.3,3.1,33.6,6,38.3,1.3c0.1,0.3,0.3,0.7,0.4,1
				c1.4,4.1,1.4,7-0.1,8.7c-4.3,5.1-20.9,2.1-38.5-1c-16.7-3-35.7-6.4-50.5-4.2c-27.3,3.9-45.5,37.1-46.6,65.7
				C462.7,223.2,483.8,187,511,183.1z"/>
		</g>
		<g id="XMLID_11_">
			<path id="XMLID_18_" class="st3" d="M377.5,258.8l0,0.4l0.3-0.2c0.1,0,0.2-0.1,0.3-0.1L377.5,258.8z"/>
			<path id="XMLID_21_" class="st3" d="M330.9,183.1c-14.9-2.1-33.8,1.3-50.5,4.2c-17.3,3.1-33.6,6-38.3,1.3c-0.1,0.3-0.3,0.7-0.4,1
				c-1.4,4.1-1.4,7,0.1,8.7c4.3,5.1,20.9,2.1,38.5-1c16.7-3,35.7-6.4,50.5-4.2c27.3,3.9,45.5,37.1,46.6,65.7
				C379.2,223.2,358.1,187,330.9,183.1z"/>
		</g>
		<path id="XMLID_26_" class="st3" d="M513.7,386.5c-26.2,26.6-89.9,29.3-90.5,29.3h-4.4c-0.6,0-64.3-2.7-90.5-29.3
			c-6.6-6.7-10.4-13.5-11.5-20.5c-1.5,9.7,2.4,19.3,11.5,28.5c26.2,26.6,89.9,27.3,90.5,27.3h4.4c0.6,0,64.3-0.7,90.5-27.3
			c9.1-9.2,12.9-18.8,11.5-28.5C524.1,372.9,520.2,379.8,513.7,386.5z"/>
		<path id="XMLID_4_" class="st2" d="M330.4,196.5c-8.4-1.2-18.7-0.7-33.5,1.5l-0.3,0l0.1,0.3c5.5,12.2,26.3,53.4,61.6,73.5l0.2,0.1
			l0.1-0.1c4.6-4.3,9.8-8,15.4-10.9l0.1-0.1l0-0.2c-0.2-14-4.8-29-12.5-41.1C353.2,206.4,342.1,198.2,330.4,196.5z"/>
		<path id="XMLID_14_" class="st4" d="M374,260.8c-0.2-14-4.8-29-12.5-41.1c-8.4-13.2-19.4-21.4-31.2-23.1
			c-8.4-1.2-18.7-0.7-33.5,1.5l-0.3,0l0.1,0.3c1.6,3.5,4.5,9.5,8.7,16.7c6.4-0.4,11.8-0.3,16.5,0.4c11.8,1.7,22.9,9.9,31.2,23.1
			c5.4,8.6,9.2,18.6,11.1,28.6c3.1-2.3,6.3-4.4,9.7-6.2l0.1-0.1L374,260.8z"/>
		<path id="XMLID_17_" class="st3" d="M549.1,198.7l-0.2,0l-0.1,0.2c-3.9,8.8-25.3,53.7-62.5,75.6l-0.3,0.2l0.2,0.2
			c1.6,1.7,3.2,3.5,4.7,5.4l0.1,0.2l0.2-0.1c40-20.1,67-69.1,72-78.7l0.2-0.3l-2.5-0.4C557.4,200.1,553.2,199.4,549.1,198.7z"/>
		<path id="XMLID_27_" class="st4" d="M467.9,260.8c0.2-14,4.8-29,12.5-41.1c8.4-13.2,19.4-21.4,31.2-23.1
			c8.4-1.2,18.7-0.7,33.5,1.5l0.3,0l-0.1,0.3c-1.6,3.5-4.5,9.5-8.7,16.7c-6.4-0.4-11.8-0.3-16.5,0.4c-11.8,1.7-22.9,9.9-31.2,23.1
			c-5.4,8.6-9.2,18.6-11.1,28.6c-3.1-2.3-6.3-4.4-9.7-6.2l-0.1-0.1L467.9,260.8z"/>
		<path id="XMLID_32_" class="st2" d="M420.9,347.9c-9.2,0-13.8,1.9-13.8,5.6c0,4.4,5.8,10.8,13.8,10.8c8,0,13.8-6.5,13.8-10.8
			C434.7,349.8,430.1,347.9,420.9,347.9z"/>
		<g id="XMLID_6_">
			<path id="XMLID_41_" class="st1" d="M420.9,367.4c-9.3,0-16.8-7.6-16.8-13.8c0-5.7,5.6-8.6,16.8-8.6c11.1,0,16.8,2.9,16.8,8.6
				C437.7,359.8,430.2,367.4,420.9,367.4z M420.9,348.9c-5.8,0-12.8,0.8-12.8,4.7c0,3.9,5.5,9.8,12.8,9.8c7.3,0,12.8-6,12.8-9.8
				C433.7,349.7,426.8,348.9,420.9,348.9z"/>
		</g>
		<g id="XMLID_7_">
			<path id="XMLID_78_" class="st1" d="M453.7,366.3c0,0-3.5,10.4-14.7,12.1c-11.3,1.6-18.1-6.4-18.1-6.4s-6.8,8-18.1,6.4
				c-11.3-1.6-14.7-12.1-14.7-12.1s-3,4.7-10.6,4.2c0,0,1.6,2.2,8.3,1.9c0,0,8.2,38.7,35,38.7c26.8,0,35-38.7,35-38.7
				c6.8,0.3,8.3-1.9,8.3-1.9C456.8,371,453.7,366.3,453.7,366.3z"/>
		</g>
		<g id="XMLID_9_">
			<g id="XMLID_121_">
				<g id="XMLID_124_">
					<path id="XMLID_125_" class="st0" d="M421.8,375.9l-0.9,11.4l-0.9-11.4c-2.4,1.9-6.6,4.6-12.3,5c1.4,5.2,3.2,10.8,3.9,12.9
						c0.2,0.5,0.6,0.8,1,0.8h8.2h8.2c0.5,0,0.9-0.3,1-0.8c0.7-2.1,2.5-7.7,3.9-12.9C428.4,380.4,424.2,377.8,421.8,375.9z"/>
				</g>
				<g id="XMLID_122_">
					<path id="XMLID_123_" class="st2" d="M420.9,401.3c0,0-2.7-5.1-9.2-3.5c-2.9,0.7-5.5,2.7-7.4,4.6c4.4,3.8,9.9,6.4,16.5,6.4
						c6.7,0,12.1-2.6,16.6-6.4c-1.9-1.9-4.5-3.8-7.4-4.6C423.7,396.1,420.9,401.3,420.9,401.3z"/>
				</g>
			</g>
		</g>
		<g id="XMLID_15_">
			<g id="XMLID_22_">
				<path id="XMLID_69_" class="st1" d="M385.5,328.9c-3.4,0-6.2-2.8-6.2-6.2c0-3.4,2.7-6.2,6.1-6.2c-1.9-1.3-4-2-6.3-2
					c-7.5,0-13.6,8.1-13.6,18.2s6.1,18.2,13.6,18.2c7.5,0,13.6-8.1,13.6-18.2c0-2.9-0.5-5.6-1.4-8
					C390.6,327.1,388.3,328.9,385.5,328.9z"/>
			</g>
			<g id="XMLID_28_">
				<path id="XMLID_68_" class="st1" d="M476.3,332.6c0-10-6.1-18.2-13.6-18.2c-2.3,0-4.4,0.7-6.3,2c3.4,0,6.1,2.8,6.1,6.2
					c0,3.4-2.8,6.2-6.2,6.2c-2.8,0-5.1-1.8-5.9-4.3c-0.9,2.4-1.4,5.1-1.4,8c0,10,6.1,18.2,13.6,18.2
					C470.2,350.8,476.3,342.7,476.3,332.6z"/>
			</g>
		</g>
		<path id="XMLID_73_" class="st3" d="M377.3,303.9c10,0,18.4,9.4,20.1,21.7c0-0.1,0-0.2,0-0.2c0,0,0-0.1,0-0.1c0,0,0,0,0,0v-0.7
			c0,0,0,0,0,0c-0.1-0.5-0.2-1-0.2-1.6c0,0,0,0,0-0.1c-2.2-12.8-10.8-23.4-21-23.4c-11.9,0-23.6,14.4-23.6,29.9
			c0,13.7,9.2,25,19.5,27.4c0.1,0,0.1,0,0.2,0c1.9,0.4,4,0.5,6,0c-0.3,0-0.6,0-0.9,0c-11.3,0-20.5-11.8-20.5-26.5
			C356.8,315.7,366,303.9,377.3,303.9z"/>
		<path id="XMLID_72_" class="st3" d="M465.7,299.4c-10.4,0-19.1,10.9-21.1,24c0,0.7-0.1,1.5-0.1,2.2c1.7-12.3,10.1-21.7,20.1-21.7
			c11.3,0,20.5,11.8,20.5,26.5c0,14.6-9.2,26.5-20.5,26.5c0,0,0,0,0,0c1,0.2,2,0.3,3,0.2c0.6,0,1.2-0.1,1.8-0.2
			c10.6-2.2,20-13.7,20-27.5C489.3,313.8,477.7,299.4,465.7,299.4z"/>
		<path id="XMLID_46_" class="st1" d="M375.8,297.1c-12,0-23.8,15-23.8,31.1c0,16.1,11.7,29.1,23.8,29.1c2.4,0,4.8-0.6,7-1.5
			c-1.8,0.7-3.8,1.1-5.8,1.1c-11.4,0-20.6-12.3-20.6-27.5c0-15.2,9.2-27.5,20.6-27.5c11.2,0,20.4,12,20.6,27c0-0.2,0-0.4,0-0.6
			C397.6,312.1,387.8,297.1,375.8,297.1z"/>
		<path id="XMLID_49_" class="st1" d="M364,290.9c2.4-1.9,7.3-4.8,15.6-4.7c1.2,0,2.2-1.1,1.9-2.4c-0.3-1.7-1-3.7-2.3-4.5
			c-2.2-1.3-12.4,2.7-16.1,10.9C362.8,290.8,363.5,291.3,364,290.9z"/>
		<path id="XMLID_50_" class="st1" d="M466.1,297.1c-12,0-21.8,15-21.8,31.1c0,0.2,0,0.4,0,0.6c0.2-14.9,9.4-27,20.6-27
			c11.4,0,20.6,12.3,20.6,27.5c0,15.2-9.2,27.5-20.6,27.5c-2,0-4-0.4-5.8-1.1c2.2,1,4.5,1.5,7,1.5c12,0,23.8-13,23.8-29.1
			C489.9,312.1,478.1,297.1,466.1,297.1z"/>
		<path id="XMLID_51_" class="st1" d="M462.4,286.2c8.3,0,13.2,2.8,15.6,4.7c0.5,0.4,1.2-0.2,0.9-0.7c-3.7-8.1-13.9-12.2-16.1-10.9
			c-1.3,0.8-2,2.8-2.3,4.5C460.2,285.1,461.1,286.2,462.4,286.2z"/>
		<g id="XMLID_19_">
			<g id="XMLID_23_">
				<g id="XMLID_31_">
					
						<ellipse id="XMLID_30_" transform="matrix(0.1893 -0.9819 0.9819 0.1893 -79.5953 648.286)" class="st2" cx="352.8" cy="372.3" rx="13.2" ry="17.4"/>
				</g>
			</g>
			<g id="XMLID_25_">
				<g id="XMLID_33_">
					
						<ellipse id="XMLID_34_" transform="matrix(0.9819 -0.1893 0.1893 0.9819 -61.6372 99.3082)" class="st2" cx="489.1" cy="372.3" rx="17.4" ry="13.2"/>
				</g>
			</g>
		</g>
		<path id="XMLID_54_" class="st1" d="M603.8,188.4c-3.9-11.4-14.4-20.8-29.5-26.4c-25.4-9.4-57.2-6.4-81,7.6
			c-36.8,21.7-44.6,72.1-45.9,83.6c-7-1.6-14.8-2.5-23.5-2.5H418c-8.6,0-16.4,0.9-23.5,2.5c-1.3-11.5-9.1-62-45.9-83.6
			c-23.8-14-55.6-17-81-7.6c-15.1,5.6-25.6,15-29.5,26.4c-1.9,5.5-1.6,9.5,0.8,12.4c5.1,6,18.5,4.3,35.7,1.3
			c4.5,8.9,31.8,59.7,73.6,81.1c-16.8,23.2-18.9,51.4-19.2,57.5c-4.3,2.6-13.4,11-15.8,23.4c-2.2,11.4,2,22.4,12.3,32.9
			c27.3,27.7,90.5,28.4,93.2,28.4h2.2h2.2c2.7,0,65.8-0.7,93.2-28.4c10.3-10.5,14.5-21.6,12.3-32.9c-2.4-12.4-11.5-20.8-15.8-23.4
			c-0.3-6.1-2.3-34.3-19.2-57.5c41.7-21.4,69-72.2,73.6-81.1c17.3,3,30.6,4.6,35.7-1.3C605.4,197.9,605.7,193.9,603.8,188.4z
			 M241.9,198.2c-1.4-1.6-1.4-4.5-0.1-8.5c3.5-10.3,13.2-18.8,27.2-23.9c24-8.9,55.2-5.9,77.6,7.3c35.3,20.8,42.8,71.4,44,81.1
			c-4.6,1.3-8.9,2.8-12.9,4.7c-1.2-29.4-19.7-62.1-46.9-66c-14.9-2.1-33.9,1.3-50.6,4.2C262.7,200.2,246.2,203.1,241.9,198.2z
			 M358.4,271.7c-35.6-20.4-56.7-63-61.5-73.4c11.8-1.8,23.6-2.9,33.4-1.5c25.3,3.6,43,36.3,43.5,64
			C367.9,263.9,362.8,267.6,358.4,271.7z M278.8,201.4c0.7-0.1,1.4-0.3,2.2-0.4c3.9-0.7,7.8-1.4,11.9-2c3.9,8.7,25.3,53.8,62.6,75.7
			c-1.7,1.7-3.3,3.5-4.7,5.4C311.1,260.1,284.5,212.5,278.8,201.4z M508.9,341.9l0,1.3l1.2,0.5c2.4,1.1,12.3,9.1,14.6,21.2
			c1.9,10-1.9,19.9-11.2,29.4c-26.2,26.5-89.7,27.2-90.3,27.2h-4.4c-0.6,0-64.2-0.7-90.3-27.2c-9.4-9.5-13.1-19.4-11.2-29.4
			c2.3-12.1,12.2-20.1,14.6-21.2l1.2-0.5l0-1.3c0-0.2,0.1-22.2,10.7-43.8c14.1-28.8,39.1-43.4,74.3-43.4h5.8
			c35.2,0,60.2,14.6,74.3,43.4C508.7,319.7,508.9,341.7,508.9,341.9z M483.5,271.7c-4.4-4.1-9.5-7.8-15.4-11
			c0.5-27.7,18.2-60.4,43.5-64c9.8-1.4,21.6-0.3,33.4,1.5C540.2,208.7,519.1,251.3,483.5,271.7z M491.2,280
			c-1.5-1.8-3.1-3.6-4.7-5.4c37.3-21.9,58.7-67,62.6-75.7c4,0.7,8,1.4,11.9,2c0.7,0.1,1.5,0.3,2.2,0.4
			C557.3,212.5,530.8,260.1,491.2,280z M599.9,198.2c-4.2,5-20.8,2-38.3-1.1c-16.7-3-35.7-6.4-50.6-4.2c-27.1,3.8-45.6,36.6-46.9,66
			c-4-1.8-8.2-3.4-12.9-4.7c1.1-9.8,8.7-60.4,44-81.1c22.4-13.2,53.6-16.1,77.6-7.3c14,5.2,23.6,13.7,27.2,23.9
			C601.4,193.7,601.4,196.5,599.9,198.2z"/>
		<ellipse id="XMLID_35_" class="st0" cx="420.9" cy="353.8" rx="10" ry="3"/>
		<g id="XMLID_36_">
			<g id="XMLID_37_">
				<path id="XMLID_62_" class="st1" d="M452.3,239.1c-1.3-1.4-2.8-1.7-3.7-1.7c-5.2,0.1-18.5,8.1-23.6,12.9c-1.6-0.4-3-0.5-3.6-0.4
					c-0.7,0-2.1,0-3.7,0.4c-5.1-4.8-18.4-12.8-23.6-12.9c-1,0-2.4,0.3-3.7,1.7c-3,3.2-4.6,11.4-4.1,20.5c0.6,10,4.3,17.6,7.6,19.9
					c1.3,0.9,2.6,1.2,3.9,0.8c6.8-1.9,16.8-8.8,20.5-12.1l2.1-2l1,0l1,0l2.1,2c3.7,3.3,13.6,10.2,20.5,12.1c0.4,0.1,0.7,0.1,1.1,0.1
					c1,0,1.9-0.3,2.8-1c3.3-2.3,6.9-9.9,7.6-19.9C456.9,250.5,455.3,242.2,452.3,239.1z"/>
				<g id="XMLID_38_">
					<path id="XMLID_44_" class="st2" d="M427.9,256.2c-1.1-3.7-6.6-3.4-6.6-3.4s-5.4-0.3-6.6,3.4c-1.1,3.7,1.9,7.5,6.6,7
						C425.9,263.7,429,259.9,427.9,256.2z"/>
					<path id="XMLID_40_" class="st2" d="M415.3,262.9c-0.1-0.1-0.1-0.2-0.2-0.3c-0.3-0.3-0.7-0.5-1.1-0.5
						c-8.3,0.6-15.2,4.6-15.2,4.6c3.3-3.5,10.9-6,14-6.9c0.4-0.1,0.7-0.6,0.7-1l0,0c-0.1-1-0.6-1.9-1.4-2.5
						c-3.5-2.9-9.9-6.5-9.9-6.5c4,1.1,8.6,3.5,10.7,4.6c0.5,0.3,1.2,0.1,1.5-0.4c0.1-0.2,0.2-0.3,0.3-0.5c0.5-0.7,0.4-1.7-0.3-2.3
						c-3.8-3.3-15.9-10.7-20.4-10.8c-3.1,0-5.5,8.9-4.8,19.1c0.7,10.6,5.3,18.8,7.7,18.1c6.5-1.8,16-8.5,19.3-11.5
						c0.6-0.6,0.6-1.6,0-2.2C415.9,263.6,415.6,263.3,415.3,262.9z"/>
					<path id="XMLID_39_" class="st2" d="M448.6,240.3c-4.5,0-16.5,7.5-20.4,10.8c-0.7,0.6-0.8,1.6-0.3,2.3c0.1,0.2,0.2,0.3,0.3,0.5
						c0.3,0.5,1,0.7,1.5,0.4c2-1.1,6.7-3.5,10.7-4.6c0,0-6.4,3.6-9.9,6.5c-0.8,0.6-1.3,1.5-1.4,2.5l0,0c-0.1,0.5,0.2,0.9,0.7,1
						c3.1,0.9,10.7,3.5,14,6.9c0,0-6.9-4-15.2-4.6c-0.4,0-0.8,0.2-1.1,0.5c-0.1,0.1-0.1,0.2-0.2,0.3c-0.3,0.3-0.6,0.6-0.9,0.9
						c-0.6,0.6-0.7,1.6,0,2.2c3.3,3,12.8,9.7,19.3,11.5c2.4,0.7,7.1-7.5,7.7-18.1C454,249.3,451.7,240.3,448.6,240.3z"/>
				</g>
				<path id="XMLID_45_" class="st4" d="M415.3,262.9c-0.1-0.1-0.1-0.2-0.2-0.3c-0.3-0.3-0.7-0.5-1.1-0.5
					c-8.3,0.6-15.2,4.6-15.2,4.6c3.3-3.5,10.9-6,14-6.9c0.4-0.1,0.7-0.6,0.7-1l0,0c-0.1-1-0.6-1.9-1.4-2.5c-3.5-2.9-9.9-6.5-9.9-6.5
					s6.2,4.4,6.8,6.3c0.6,1.9-10.8,6.4-12.4,13.5c0,0,8.1-3.5,10.8-3.4c2.7,0.1-4.4,6-7.9,7.4c-3.5,1.4-11.5-9.1-10.1-23.2v0
					c-0.3,2.7-0.4,5.9-0.2,9.1c0.7,10.6,5.3,18.8,7.7,18.1c6.5-1.8,16-8.5,19.3-11.5c0.6-0.6,0.6-1.6,0-2.2
					C415.9,263.6,415.6,263.3,415.3,262.9z"/>
				<path id="XMLID_47_" class="st4" d="M453.2,250.3L453.2,250.3c1.4,14.1-6.6,24.6-10.1,23.2c-3.5-1.4-10.6-7.3-7.9-7.4
					c2.7-0.1,10.8,3.4,10.8,3.4c-1.6-7.1-13-11.6-12.4-13.5c0.6-1.9,6.8-6.3,6.8-6.3s-6.4,3.6-9.9,6.5c-0.8,0.6-1.3,1.5-1.4,2.5l0,0
					c-0.1,0.5,0.2,0.9,0.7,1c3.1,0.9,10.7,3.5,14,6.9c0,0-6.9-4-15.2-4.6c-0.4,0-0.8,0.2-1.1,0.5c-0.1,0.1-0.1,0.2-0.2,0.3
					c-0.3,0.3-0.6,0.6-0.9,0.9c-0.6,0.6-0.7,1.6,0,2.2c3.3,3,12.8,9.7,19.3,11.5c2.4,0.7,7.1-7.5,7.7-18.1
					C453.6,256.1,453.5,253,453.2,250.3z"/>
			</g>
			<path id="XMLID_70_" class="st4" d="M427.9,256.2c1.3,4.6-6.6,4.7-6.6,4.7s-7.8-0.1-6.6-4.7c-1.1,3.7,1.9,7.5,6.6,7
				C425.9,263.7,429,259.9,427.9,256.2z"/>
		</g>
	</g>
	<g id="XMLID_71_">
		<circle id="XMLID_74_" class="st0" cx="373.8" cy="327.1" r="3.5"/>
		<circle id="XMLID_75_" class="st0" cx="468.1" cy="327.1" r="3.5"/>
	</g>
</g>
</svg>
