<svg xmlns="http://www.w3.org/2000/svg" viewBox="0 0 720 364" width="720" height="364" role="img" aria-label="Concrete Work price ranges across eight major U.S. metros in 2026, showing variation from Memphis, TN ($4,242-$9,009) to San Francisco, CA ($5,817-$12,354).">
<title>Concrete Work Cost by Major U.S. Metro (2026)</title>
<desc>Concrete Work price ranges across eight major U.S. metros in 2026, showing variation from Memphis, TN ($4,242-$9,009) to San Francisco, CA ($5,817-$12,354).</desc>
<rect x="0" y="0" width="720" height="364" fill="#ffffff" />
<text x="360" y="24" text-anchor="middle" font-family="-apple-system, BlinkMacSystemFont, 'Segoe UI', Roboto, sans-serif" font-size="16" font-weight="700" fill="#0f172a">Concrete Work Cost by Major U.S. Metro (2026)</text>
<text x="360" y="44" text-anchor="middle" font-family="-apple-system, BlinkMacSystemFont, 'Segoe UI', Roboto, sans-serif" font-size="12" fill="#64748b">Based on BLS wage data and BEA regional cost-of-living indices</text>
<g stroke="#e2e8f0" stroke-width="1">
<line x1="154.0" y1="80" x2="154.0" y2="336" />
<line x1="235.6" y1="80" x2="235.6" y2="336" />
<line x1="317.2" y1="80" x2="317.2" y2="336" />
<line x1="398.8" y1="80" x2="398.8" y2="336" />
<line x1="480.4" y1="80" x2="480.4" y2="336" />
<line x1="562.0" y1="80" x2="562.0" y2="336" />
</g>
<g font-family="-apple-system, BlinkMacSystemFont, 'Segoe UI', Roboto, sans-serif" font-size="10" fill="#64748b">
<text x="154.0" y="76" text-anchor="middle">$0</text>
<text x="235.6" y="76" text-anchor="middle">$4,000</text>
<text x="317.2" y="76" text-anchor="middle">$8,000</text>
<text x="398.8" y="76" text-anchor="middle">$12,000</text>
<text x="480.4" y="76" text-anchor="middle">$16,000</text>
<text x="562.0" y="76" text-anchor="middle">$20,000</text>
</g>
<g font-family="-apple-system, BlinkMacSystemFont, 'Segoe UI', Roboto, sans-serif">
<text x="140" y="99" text-anchor="end" font-size="12" font-weight="600" fill="#0f172a">San Francisco, CA</text>
<rect x="272.7" y="88" width="133.4" height="14" fill="#bfdbfe" rx="3" />
<rect x="272.7" y="88" width="46.7" height="14" fill="#1d4ed8" rx="3" />
<line x1="272.7" y1="86" x2="272.7" y2="104" stroke="#1d4ed8" stroke-width="2" />
<line x1="406.0" y1="86" x2="406.0" y2="104" stroke="#1d4ed8" stroke-width="2" />
<text x="414.02160000000003" y="99" font-size="11" fill="#0f172a">$5,817 – $12,354</text>
<text x="140" y="131" text-anchor="end" font-size="12" font-weight="600" fill="#0f172a">Seattle, WA</text>
<rect x="268.9" y="120" width="129.1" height="14" fill="#bfdbfe" rx="3" />
<rect x="268.9" y="120" width="45.2" height="14" fill="#1d4ed8" rx="3" />
<line x1="268.9" y1="118" x2="268.9" y2="136" stroke="#1d4ed8" stroke-width="2" />
<line x1="398.0" y1="118" x2="398.0" y2="136" stroke="#1d4ed8" stroke-width="2" />
<text x="406.0044" y="131" font-size="11" fill="#0f172a">$5,632 – $11,961</text>
<text x="140" y="163" text-anchor="end" font-size="12" font-weight="600" fill="#0f172a">Boston, MA</text>
<rect x="263.4" y="152" width="122.9" height="14" fill="#bfdbfe" rx="3" />
<rect x="263.4" y="152" width="43.0" height="14" fill="#1d4ed8" rx="3" />
<line x1="263.4" y1="150" x2="263.4" y2="168" stroke="#1d4ed8" stroke-width="2" />
<line x1="386.3" y1="150" x2="386.3" y2="168" stroke="#1d4ed8" stroke-width="2" />
<text x="394.2744" y="163" font-size="11" fill="#0f172a">$5,362 – $11,386</text>
<text x="140" y="195" text-anchor="end" font-size="12" font-weight="600" fill="#0f172a">Denver, CO</text>
<rect x="251.9" y="184" width="110.0" height="14" fill="#bfdbfe" rx="3" />
<rect x="251.9" y="184" width="38.5" height="14" fill="#1d4ed8" rx="3" />
<line x1="251.9" y1="182" x2="251.9" y2="200" stroke="#1d4ed8" stroke-width="2" />
<line x1="361.8" y1="182" x2="361.8" y2="200" stroke="#1d4ed8" stroke-width="2" />
<text x="369.8352" y="195" font-size="11" fill="#0f172a">$4,798 – $10,188</text>
<text x="140" y="227" text-anchor="end" font-size="12" font-weight="600" fill="#0f172a">Atlanta, GA</text>
<rect x="244.8" y="216" width="102.0" height="14" fill="#bfdbfe" rx="3" />
<rect x="244.8" y="216" width="35.7" height="14" fill="#1d4ed8" rx="3" />
<line x1="244.8" y1="214" x2="244.8" y2="232" stroke="#1d4ed8" stroke-width="2" />
<line x1="346.8" y1="214" x2="346.8" y2="232" stroke="#1d4ed8" stroke-width="2" />
<text x="354.78" y="227" font-size="11" fill="#0f172a">$4,450 – $9,450</text>
<text x="140" y="259" text-anchor="end" font-size="12" font-weight="600" fill="#0f172a">Phoenix, AZ</text>
<rect x="244.7" y="248" width="101.9" height="14" fill="#bfdbfe" rx="3" />
<rect x="244.7" y="248" width="35.7" height="14" fill="#1d4ed8" rx="3" />
<line x1="244.7" y1="246" x2="244.7" y2="264" stroke="#1d4ed8" stroke-width="2" />
<line x1="346.6" y1="246" x2="346.6" y2="264" stroke="#1d4ed8" stroke-width="2" />
<text x="354.576" y="259" font-size="11" fill="#0f172a">$4,445 – $9,440</text>
<text x="140" y="291" text-anchor="end" font-size="12" font-weight="600" fill="#0f172a">Houston, TX</text>
<rect x="243.7" y="280" width="100.8" height="14" fill="#bfdbfe" rx="3" />
<rect x="243.7" y="280" width="35.3" height="14" fill="#1d4ed8" rx="3" />
<line x1="243.7" y1="278" x2="243.7" y2="296" stroke="#1d4ed8" stroke-width="2" />
<line x1="344.4" y1="278" x2="344.4" y2="296" stroke="#1d4ed8" stroke-width="2" />
<text x="352.43399999999997" y="291" font-size="11" fill="#0f172a">$4,396 – $9,335</text>
<text x="140" y="323" text-anchor="end" font-size="12" font-weight="600" fill="#0f172a">Memphis, TN</text>
<rect x="240.5" y="312" width="97.2" height="14" fill="#bfdbfe" rx="3" />
<rect x="240.5" y="312" width="34.0" height="14" fill="#1d4ed8" rx="3" />
<line x1="240.5" y1="310" x2="240.5" y2="328" stroke="#1d4ed8" stroke-width="2" />
<line x1="337.8" y1="310" x2="337.8" y2="328" stroke="#1d4ed8" stroke-width="2" />
<text x="345.7836" y="323" font-size="11" fill="#0f172a">$4,242 – $9,009</text>
</g>
<text x="360" y="358" text-anchor="middle" font-family="-apple-system, BlinkMacSystemFont, 'Segoe UI', Roboto, sans-serif" font-size="10" fill="#64748b">Source: Woogoro city-cost model, 2026 data. woogoro.com/methodology</text>
</svg>