<svg xmlns="http://www.w3.org/2000/svg" viewBox="0 0 720 364" width="720" height="364" role="img" aria-label="Electrical Service price ranges across eight major U.S. metros in 2026, showing variation from Memphis, TN ($1,668-$14,110) to San Francisco, CA ($2,288-$19,348).">
<title>Electrical Service Cost by Major U.S. Metro (2026)</title>
<desc>Electrical Service price ranges across eight major U.S. metros in 2026, showing variation from Memphis, TN ($1,668-$14,110) to San Francisco, CA ($2,288-$19,348).</desc>
<rect x="0" y="0" width="720" height="364" fill="#ffffff" />
<text x="360" y="24" text-anchor="middle" font-family="-apple-system, BlinkMacSystemFont, 'Segoe UI', Roboto, sans-serif" font-size="16" font-weight="700" fill="#0f172a">Electrical Service Cost by Major U.S. Metro (2026)</text>
<text x="360" y="44" text-anchor="middle" font-family="-apple-system, BlinkMacSystemFont, 'Segoe UI', Roboto, sans-serif" font-size="12" fill="#64748b">Based on BLS wage data and BEA regional cost-of-living indices</text>
<g stroke="#e2e8f0" stroke-width="1">
<line x1="154.0" y1="80" x2="154.0" y2="336" />
<line x1="235.6" y1="80" x2="235.6" y2="336" />
<line x1="317.2" y1="80" x2="317.2" y2="336" />
<line x1="398.8" y1="80" x2="398.8" y2="336" />
<line x1="480.4" y1="80" x2="480.4" y2="336" />
<line x1="562.0" y1="80" x2="562.0" y2="336" />
</g>
<g font-family="-apple-system, BlinkMacSystemFont, 'Segoe UI', Roboto, sans-serif" font-size="10" fill="#64748b">
<text x="154.0" y="76" text-anchor="middle">$0</text>
<text x="235.6" y="76" text-anchor="middle">$4,000</text>
<text x="317.2" y="76" text-anchor="middle">$8,000</text>
<text x="398.8" y="76" text-anchor="middle">$12,000</text>
<text x="480.4" y="76" text-anchor="middle">$16,000</text>
<text x="562.0" y="76" text-anchor="middle">$20,000</text>
</g>
<g font-family="-apple-system, BlinkMacSystemFont, 'Segoe UI', Roboto, sans-serif">
<text x="140" y="99" text-anchor="end" font-size="12" font-weight="600" fill="#0f172a">San Francisco, CA</text>
<rect x="200.7" y="88" width="348.0" height="14" fill="#bfdbfe" rx="3" />
<rect x="200.7" y="88" width="121.8" height="14" fill="#1d4ed8" rx="3" />
<line x1="200.7" y1="86" x2="200.7" y2="104" stroke="#1d4ed8" stroke-width="2" />
<line x1="548.7" y1="86" x2="548.7" y2="104" stroke="#1d4ed8" stroke-width="2" />
<text x="556.6992" y="99" font-size="11" fill="#0f172a">$2,288 – $19,348</text>
<text x="140" y="131" text-anchor="end" font-size="12" font-weight="600" fill="#0f172a">Seattle, WA</text>
<rect x="199.2" y="120" width="337.0" height="14" fill="#bfdbfe" rx="3" />
<rect x="199.2" y="120" width="117.9" height="14" fill="#1d4ed8" rx="3" />
<line x1="199.2" y1="118" x2="199.2" y2="136" stroke="#1d4ed8" stroke-width="2" />
<line x1="536.2" y1="118" x2="536.2" y2="136" stroke="#1d4ed8" stroke-width="2" />
<text x="544.1532" y="131" font-size="11" fill="#0f172a">$2,215 – $18,733</text>
<text x="140" y="163" text-anchor="end" font-size="12" font-weight="600" fill="#0f172a">Boston, MA</text>
<rect x="197.0" y="152" width="320.7" height="14" fill="#bfdbfe" rx="3" />
<rect x="197.0" y="152" width="112.3" height="14" fill="#1d4ed8" rx="3" />
<line x1="197.0" y1="150" x2="197.0" y2="168" stroke="#1d4ed8" stroke-width="2" />
<line x1="517.8" y1="150" x2="517.8" y2="168" stroke="#1d4ed8" stroke-width="2" />
<text x="525.7728" y="163" font-size="11" fill="#0f172a">$2,109 – $17,832</text>
<text x="140" y="195" text-anchor="end" font-size="12" font-weight="600" fill="#0f172a">Denver, CO</text>
<rect x="192.5" y="184" width="287.0" height="14" fill="#bfdbfe" rx="3" />
<rect x="192.5" y="184" width="100.5" height="14" fill="#1d4ed8" rx="3" />
<line x1="192.5" y1="182" x2="192.5" y2="200" stroke="#1d4ed8" stroke-width="2" />
<line x1="479.5" y1="182" x2="479.5" y2="200" stroke="#1d4ed8" stroke-width="2" />
<text x="487.50239999999997" y="195" font-size="11" fill="#0f172a">$1,887 – $15,956</text>
<text x="140" y="227" text-anchor="end" font-size="12" font-weight="600" fill="#0f172a">Atlanta, GA</text>
<rect x="189.7" y="216" width="266.2" height="14" fill="#bfdbfe" rx="3" />
<rect x="189.7" y="216" width="93.2" height="14" fill="#1d4ed8" rx="3" />
<line x1="189.7" y1="214" x2="189.7" y2="232" stroke="#1d4ed8" stroke-width="2" />
<line x1="455.9" y1="214" x2="455.9" y2="232" stroke="#1d4ed8" stroke-width="2" />
<text x="463.92" y="227" font-size="11" fill="#0f172a">$1,750 – $14,800</text>
<text x="140" y="259" text-anchor="end" font-size="12" font-weight="600" fill="#0f172a">Phoenix, AZ</text>
<rect x="189.7" y="248" width="266.0" height="14" fill="#bfdbfe" rx="3" />
<rect x="189.7" y="248" width="93.1" height="14" fill="#1d4ed8" rx="3" />
<line x1="189.7" y1="246" x2="189.7" y2="264" stroke="#1d4ed8" stroke-width="2" />
<line x1="455.6" y1="246" x2="455.6" y2="264" stroke="#1d4ed8" stroke-width="2" />
<text x="463.614" y="259" font-size="11" fill="#0f172a">$1,748 – $14,785</text>
<text x="140" y="291" text-anchor="end" font-size="12" font-weight="600" fill="#0f172a">Houston, TX</text>
<rect x="189.3" y="280" width="263.0" height="14" fill="#bfdbfe" rx="3" />
<rect x="189.3" y="280" width="92.0" height="14" fill="#1d4ed8" rx="3" />
<line x1="189.3" y1="278" x2="189.3" y2="296" stroke="#1d4ed8" stroke-width="2" />
<line x1="452.2" y1="278" x2="452.2" y2="296" stroke="#1d4ed8" stroke-width="2" />
<text x="460.248" y="291" font-size="11" fill="#0f172a">$1,729 – $14,620</text>
<text x="140" y="323" text-anchor="end" font-size="12" font-weight="600" fill="#0f172a">Memphis, TN</text>
<rect x="188.0" y="312" width="253.8" height="14" fill="#bfdbfe" rx="3" />
<rect x="188.0" y="312" width="88.8" height="14" fill="#1d4ed8" rx="3" />
<line x1="188.0" y1="310" x2="188.0" y2="328" stroke="#1d4ed8" stroke-width="2" />
<line x1="441.8" y1="310" x2="441.8" y2="328" stroke="#1d4ed8" stroke-width="2" />
<text x="449.844" y="323" font-size="11" fill="#0f172a">$1,668 – $14,110</text>
</g>
<text x="360" y="358" text-anchor="middle" font-family="-apple-system, BlinkMacSystemFont, 'Segoe UI', Roboto, sans-serif" font-size="10" fill="#64748b">Source: Woogoro city-cost model, 2026 data. woogoro.com/methodology</text>
</svg>