<svg xmlns="http://www.w3.org/2000/svg" viewBox="0 0 720 364" width="720" height="364" role="img" aria-label="Fence Installation price ranges across eight major U.S. metros in 2026, showing variation from Memphis, TN ($3,766-$10,820) to San Francisco, CA ($5,164-$14,838).">
<title>Fence Installation Cost by Major U.S. Metro (2026)</title>
<desc>Fence Installation price ranges across eight major U.S. metros in 2026, showing variation from Memphis, TN ($3,766-$10,820) to San Francisco, CA ($5,164-$14,838).</desc>
<rect x="0" y="0" width="720" height="364" fill="#ffffff" />
<text x="360" y="24" text-anchor="middle" font-family="-apple-system, BlinkMacSystemFont, 'Segoe UI', Roboto, sans-serif" font-size="16" font-weight="700" fill="#0f172a">Fence Installation Cost by Major U.S. Metro (2026)</text>
<text x="360" y="44" text-anchor="middle" font-family="-apple-system, BlinkMacSystemFont, 'Segoe UI', Roboto, sans-serif" font-size="12" fill="#64748b">Based on BLS wage data and BEA regional cost-of-living indices</text>
<g stroke="#e2e8f0" stroke-width="1">
<line x1="154.0" y1="80" x2="154.0" y2="336" />
<line x1="235.6" y1="80" x2="235.6" y2="336" />
<line x1="317.2" y1="80" x2="317.2" y2="336" />
<line x1="398.8" y1="80" x2="398.8" y2="336" />
<line x1="480.4" y1="80" x2="480.4" y2="336" />
<line x1="562.0" y1="80" x2="562.0" y2="336" />
</g>
<g font-family="-apple-system, BlinkMacSystemFont, 'Segoe UI', Roboto, sans-serif" font-size="10" fill="#64748b">
<text x="154.0" y="76" text-anchor="middle">$0</text>
<text x="235.6" y="76" text-anchor="middle">$4,000</text>
<text x="317.2" y="76" text-anchor="middle">$8,000</text>
<text x="398.8" y="76" text-anchor="middle">$12,000</text>
<text x="480.4" y="76" text-anchor="middle">$16,000</text>
<text x="562.0" y="76" text-anchor="middle">$20,000</text>
</g>
<g font-family="-apple-system, BlinkMacSystemFont, 'Segoe UI', Roboto, sans-serif">
<text x="140" y="99" text-anchor="end" font-size="12" font-weight="600" fill="#0f172a">San Francisco, CA</text>
<rect x="259.3" y="88" width="197.3" height="14" fill="#bfdbfe" rx="3" />
<rect x="259.3" y="88" width="69.1" height="14" fill="#1d4ed8" rx="3" />
<line x1="259.3" y1="86" x2="259.3" y2="104" stroke="#1d4ed8" stroke-width="2" />
<line x1="456.7" y1="86" x2="456.7" y2="104" stroke="#1d4ed8" stroke-width="2" />
<text x="464.6952" y="99" font-size="11" fill="#0f172a">$5,164 – $14,838</text>
<text x="140" y="131" text-anchor="end" font-size="12" font-weight="600" fill="#0f172a">Seattle, WA</text>
<rect x="256.0" y="120" width="191.1" height="14" fill="#bfdbfe" rx="3" />
<rect x="256.0" y="120" width="66.9" height="14" fill="#1d4ed8" rx="3" />
<line x1="256.0" y1="118" x2="256.0" y2="136" stroke="#1d4ed8" stroke-width="2" />
<line x1="447.1" y1="118" x2="447.1" y2="136" stroke="#1d4ed8" stroke-width="2" />
<text x="455.06640000000004" y="131" font-size="11" fill="#0f172a">$5,000 – $14,366</text>
<text x="140" y="163" text-anchor="end" font-size="12" font-weight="600" fill="#0f172a">Boston, MA</text>
<rect x="251.1" y="152" width="181.9" height="14" fill="#bfdbfe" rx="3" />
<rect x="251.1" y="152" width="63.7" height="14" fill="#1d4ed8" rx="3" />
<line x1="251.1" y1="150" x2="251.1" y2="168" stroke="#1d4ed8" stroke-width="2" />
<line x1="433.0" y1="150" x2="433.0" y2="168" stroke="#1d4ed8" stroke-width="2" />
<text x="440.96999999999997" y="163" font-size="11" fill="#0f172a">$4,759 – $13,675</text>
<text x="140" y="195" text-anchor="end" font-size="12" font-weight="600" fill="#0f172a">Denver, CO</text>
<rect x="240.9" y="184" width="162.8" height="14" fill="#bfdbfe" rx="3" />
<rect x="240.9" y="184" width="57.0" height="14" fill="#1d4ed8" rx="3" />
<line x1="240.9" y1="182" x2="240.9" y2="200" stroke="#1d4ed8" stroke-width="2" />
<line x1="403.6" y1="182" x2="403.6" y2="200" stroke="#1d4ed8" stroke-width="2" />
<text x="411.61440000000005" y="195" font-size="11" fill="#0f172a">$4,258 – $12,236</text>
<text x="140" y="227" text-anchor="end" font-size="12" font-weight="600" fill="#0f172a">Atlanta, GA</text>
<rect x="234.6" y="216" width="151.0" height="14" fill="#bfdbfe" rx="3" />
<rect x="234.6" y="216" width="52.8" height="14" fill="#1d4ed8" rx="3" />
<line x1="234.6" y1="214" x2="234.6" y2="232" stroke="#1d4ed8" stroke-width="2" />
<line x1="385.5" y1="214" x2="385.5" y2="232" stroke="#1d4ed8" stroke-width="2" />
<text x="393.53999999999996" y="227" font-size="11" fill="#0f172a">$3,950 – $11,350</text>
<text x="140" y="259" text-anchor="end" font-size="12" font-weight="600" fill="#0f172a">Phoenix, AZ</text>
<rect x="234.5" y="248" width="150.8" height="14" fill="#bfdbfe" rx="3" />
<rect x="234.5" y="248" width="52.8" height="14" fill="#1d4ed8" rx="3" />
<line x1="234.5" y1="246" x2="234.5" y2="264" stroke="#1d4ed8" stroke-width="2" />
<line x1="385.3" y1="246" x2="385.3" y2="264" stroke="#1d4ed8" stroke-width="2" />
<text x="393.2952" y="259" font-size="11" fill="#0f172a">$3,946 – $11,338</text>
<text x="140" y="291" text-anchor="end" font-size="12" font-weight="600" fill="#0f172a">Houston, TX</text>
<rect x="233.6" y="280" width="149.1" height="14" fill="#bfdbfe" rx="3" />
<rect x="233.6" y="280" width="52.2" height="14" fill="#1d4ed8" rx="3" />
<line x1="233.6" y1="278" x2="233.6" y2="296" stroke="#1d4ed8" stroke-width="2" />
<line x1="382.7" y1="278" x2="382.7" y2="296" stroke="#1d4ed8" stroke-width="2" />
<text x="390.72479999999996" y="291" font-size="11" fill="#0f172a">$3,902 – $11,212</text>
<text x="140" y="323" text-anchor="end" font-size="12" font-weight="600" fill="#0f172a">Memphis, TN</text>
<rect x="230.8" y="312" width="143.9" height="14" fill="#bfdbfe" rx="3" />
<rect x="230.8" y="312" width="50.4" height="14" fill="#1d4ed8" rx="3" />
<line x1="230.8" y1="310" x2="230.8" y2="328" stroke="#1d4ed8" stroke-width="2" />
<line x1="374.7" y1="310" x2="374.7" y2="328" stroke="#1d4ed8" stroke-width="2" />
<text x="382.728" y="323" font-size="11" fill="#0f172a">$3,766 – $10,820</text>
</g>
<text x="360" y="358" text-anchor="middle" font-family="-apple-system, BlinkMacSystemFont, 'Segoe UI', Roboto, sans-serif" font-size="10" fill="#64748b">Source: Woogoro city-cost model, 2026 data. woogoro.com/methodology</text>
</svg>