<svg xmlns="http://www.w3.org/2000/svg" viewBox="0 0 720 364" width="720" height="364" role="img" aria-label="Foundation Repair price ranges across eight major U.S. metros in 2026, showing variation from Memphis, TN ($477-$24,692) to San Francisco, CA ($654-$33,859).">
<title>Foundation Repair Cost by Major U.S. Metro (2026)</title>
<desc>Foundation Repair price ranges across eight major U.S. metros in 2026, showing variation from Memphis, TN ($477-$24,692) to San Francisco, CA ($654-$33,859).</desc>
<rect x="0" y="0" width="720" height="364" fill="#ffffff" />
<text x="360" y="24" text-anchor="middle" font-family="-apple-system, BlinkMacSystemFont, 'Segoe UI', Roboto, sans-serif" font-size="16" font-weight="700" fill="#0f172a">Foundation Repair Cost by Major U.S. Metro (2026)</text>
<text x="360" y="44" text-anchor="middle" font-family="-apple-system, BlinkMacSystemFont, 'Segoe UI', Roboto, sans-serif" font-size="12" fill="#64748b">Based on BLS wage data and BEA regional cost-of-living indices</text>
<g stroke="#e2e8f0" stroke-width="1">
<line x1="154.0" y1="80" x2="154.0" y2="336" />
<line x1="235.6" y1="80" x2="235.6" y2="336" />
<line x1="317.2" y1="80" x2="317.2" y2="336" />
<line x1="398.8" y1="80" x2="398.8" y2="336" />
<line x1="480.4" y1="80" x2="480.4" y2="336" />
<line x1="562.0" y1="80" x2="562.0" y2="336" />
</g>
<g font-family="-apple-system, BlinkMacSystemFont, 'Segoe UI', Roboto, sans-serif" font-size="10" fill="#64748b">
<text x="154.0" y="76" text-anchor="middle">$0</text>
<text x="235.6" y="76" text-anchor="middle">$10,000</text>
<text x="317.2" y="76" text-anchor="middle">$20,000</text>
<text x="398.8" y="76" text-anchor="middle">$30,000</text>
<text x="480.4" y="76" text-anchor="middle">$40,000</text>
<text x="562.0" y="76" text-anchor="middle">$50,000</text>
</g>
<g font-family="-apple-system, BlinkMacSystemFont, 'Segoe UI', Roboto, sans-serif">
<text x="140" y="99" text-anchor="end" font-size="12" font-weight="600" fill="#0f172a">San Francisco, CA</text>
<rect x="159.3" y="88" width="271.0" height="14" fill="#bfdbfe" rx="3" />
<rect x="159.3" y="88" width="94.8" height="14" fill="#1d4ed8" rx="3" />
<line x1="159.3" y1="86" x2="159.3" y2="104" stroke="#1d4ed8" stroke-width="2" />
<line x1="430.3" y1="86" x2="430.3" y2="104" stroke="#1d4ed8" stroke-width="2" />
<text x="438.28944" y="99" font-size="11" fill="#0f172a">$654 – $33,859</text>
<text x="140" y="131" text-anchor="end" font-size="12" font-weight="600" fill="#0f172a">Seattle, WA</text>
<rect x="159.2" y="120" width="262.3" height="14" fill="#bfdbfe" rx="3" />
<rect x="159.2" y="120" width="91.8" height="14" fill="#1d4ed8" rx="3" />
<line x1="159.2" y1="118" x2="159.2" y2="136" stroke="#1d4ed8" stroke-width="2" />
<line x1="421.5" y1="118" x2="421.5" y2="136" stroke="#1d4ed8" stroke-width="2" />
<text x="429.50112" y="131" font-size="11" fill="#0f172a">$633 – $32,782</text>
<text x="140" y="163" text-anchor="end" font-size="12" font-weight="600" fill="#0f172a">Boston, MA</text>
<rect x="158.9" y="152" width="249.7" height="14" fill="#bfdbfe" rx="3" />
<rect x="158.9" y="152" width="87.4" height="14" fill="#1d4ed8" rx="3" />
<line x1="158.9" y1="150" x2="158.9" y2="168" stroke="#1d4ed8" stroke-width="2" />
<line x1="408.6" y1="150" x2="408.6" y2="168" stroke="#1d4ed8" stroke-width="2" />
<text x="416.64096" y="163" font-size="11" fill="#0f172a">$602 – $31,206</text>
<text x="140" y="195" text-anchor="end" font-size="12" font-weight="600" fill="#0f172a">Denver, CO</text>
<rect x="158.4" y="184" width="223.5" height="14" fill="#bfdbfe" rx="3" />
<rect x="158.4" y="184" width="78.2" height="14" fill="#1d4ed8" rx="3" />
<line x1="158.4" y1="182" x2="158.4" y2="200" stroke="#1d4ed8" stroke-width="2" />
<line x1="381.9" y1="182" x2="381.9" y2="200" stroke="#1d4ed8" stroke-width="2" />
<text x="389.85168" y="195" font-size="11" fill="#0f172a">$539 – $27,923</text>
<text x="140" y="227" text-anchor="end" font-size="12" font-weight="600" fill="#0f172a">Atlanta, GA</text>
<rect x="158.1" y="216" width="207.3" height="14" fill="#bfdbfe" rx="3" />
<rect x="158.1" y="216" width="72.5" height="14" fill="#1d4ed8" rx="3" />
<line x1="158.1" y1="214" x2="158.1" y2="232" stroke="#1d4ed8" stroke-width="2" />
<line x1="365.3" y1="214" x2="365.3" y2="232" stroke="#1d4ed8" stroke-width="2" />
<text x="373.344" y="227" font-size="11" fill="#0f172a">$500 – $25,900</text>
<text x="140" y="259" text-anchor="end" font-size="12" font-weight="600" fill="#0f172a">Phoenix, AZ</text>
<rect x="158.1" y="248" width="207.1" height="14" fill="#bfdbfe" rx="3" />
<rect x="158.1" y="248" width="72.5" height="14" fill="#1d4ed8" rx="3" />
<line x1="158.1" y1="246" x2="158.1" y2="264" stroke="#1d4ed8" stroke-width="2" />
<line x1="365.1" y1="246" x2="365.1" y2="264" stroke="#1d4ed8" stroke-width="2" />
<text x="373.13184" y="259" font-size="11" fill="#0f172a">$499 – $25,874</text>
<text x="140" y="291" text-anchor="end" font-size="12" font-weight="600" fill="#0f172a">Houston, TX</text>
<rect x="158.0" y="280" width="204.7" height="14" fill="#bfdbfe" rx="3" />
<rect x="158.0" y="280" width="71.7" height="14" fill="#1d4ed8" rx="3" />
<line x1="158.0" y1="278" x2="158.0" y2="296" stroke="#1d4ed8" stroke-width="2" />
<line x1="362.8" y1="278" x2="362.8" y2="296" stroke="#1d4ed8" stroke-width="2" />
<text x="370.7736" y="291" font-size="11" fill="#0f172a">$494 – $25,585</text>
<text x="140" y="323" text-anchor="end" font-size="12" font-weight="600" fill="#0f172a">Memphis, TN</text>
<rect x="157.9" y="312" width="197.6" height="14" fill="#bfdbfe" rx="3" />
<rect x="157.9" y="312" width="69.2" height="14" fill="#1d4ed8" rx="3" />
<line x1="157.9" y1="310" x2="157.9" y2="328" stroke="#1d4ed8" stroke-width="2" />
<line x1="355.5" y1="310" x2="355.5" y2="328" stroke="#1d4ed8" stroke-width="2" />
<text x="363.48672" y="323" font-size="11" fill="#0f172a">$477 – $24,692</text>
</g>
<text x="360" y="358" text-anchor="middle" font-family="-apple-system, BlinkMacSystemFont, 'Segoe UI', Roboto, sans-serif" font-size="10" fill="#64748b">Source: Woogoro city-cost model, 2026 data. woogoro.com/methodology</text>
</svg>