<svg xmlns="http://www.w3.org/2000/svg" viewBox="0 0 720 364" width="720" height="364" role="img" aria-label="Garage Door Installation price ranges across eight major U.S. metros in 2026, showing variation from Memphis, TN ($911-$3,782) to San Francisco, CA ($1,250-$5,186).">
<title>Garage Door Installation Cost by Major U.S. Metro (2026)</title>
<desc>Garage Door Installation price ranges across eight major U.S. metros in 2026, showing variation from Memphis, TN ($911-$3,782) to San Francisco, CA ($1,250-$5,186).</desc>
<rect x="0" y="0" width="720" height="364" fill="#ffffff" />
<text x="360" y="24" text-anchor="middle" font-family="-apple-system, BlinkMacSystemFont, 'Segoe UI', Roboto, sans-serif" font-size="16" font-weight="700" fill="#0f172a">Garage Door Installation Cost by Major U.S. Metro (2026)</text>
<text x="360" y="44" text-anchor="middle" font-family="-apple-system, BlinkMacSystemFont, 'Segoe UI', Roboto, sans-serif" font-size="12" fill="#64748b">Based on BLS wage data and BEA regional cost-of-living indices</text>
<g stroke="#e2e8f0" stroke-width="1">
<line x1="154.0" y1="80" x2="154.0" y2="336" />
<line x1="235.6" y1="80" x2="235.6" y2="336" />
<line x1="317.2" y1="80" x2="317.2" y2="336" />
<line x1="398.8" y1="80" x2="398.8" y2="336" />
<line x1="480.4" y1="80" x2="480.4" y2="336" />
<line x1="562.0" y1="80" x2="562.0" y2="336" />
</g>
<g font-family="-apple-system, BlinkMacSystemFont, 'Segoe UI', Roboto, sans-serif" font-size="10" fill="#64748b">
<text x="154.0" y="76" text-anchor="middle">$0</text>
<text x="235.6" y="76" text-anchor="middle">$2,000</text>
<text x="317.2" y="76" text-anchor="middle">$4,000</text>
<text x="398.8" y="76" text-anchor="middle">$6,000</text>
<text x="480.4" y="76" text-anchor="middle">$8,000</text>
<text x="562.0" y="76" text-anchor="middle">$10,000</text>
</g>
<g font-family="-apple-system, BlinkMacSystemFont, 'Segoe UI', Roboto, sans-serif">
<text x="140" y="99" text-anchor="end" font-size="12" font-weight="600" fill="#0f172a">San Francisco, CA</text>
<rect x="205.0" y="88" width="160.6" height="14" fill="#bfdbfe" rx="3" />
<rect x="205.0" y="88" width="56.2" height="14" fill="#1d4ed8" rx="3" />
<line x1="205.0" y1="86" x2="205.0" y2="104" stroke="#1d4ed8" stroke-width="2" />
<line x1="365.6" y1="86" x2="365.6" y2="104" stroke="#1d4ed8" stroke-width="2" />
<text x="373.5888" y="99" font-size="11" fill="#0f172a">$1,250 – $5,186</text>
<text x="140" y="131" text-anchor="end" font-size="12" font-weight="600" fill="#0f172a">Seattle, WA</text>
<rect x="203.4" y="120" width="155.5" height="14" fill="#bfdbfe" rx="3" />
<rect x="203.4" y="120" width="54.4" height="14" fill="#1d4ed8" rx="3" />
<line x1="203.4" y1="118" x2="203.4" y2="136" stroke="#1d4ed8" stroke-width="2" />
<line x1="358.9" y1="118" x2="358.9" y2="136" stroke="#1d4ed8" stroke-width="2" />
<text x="366.8568" y="131" font-size="11" fill="#0f172a">$1,210 – $5,021</text>
<text x="140" y="163" text-anchor="end" font-size="12" font-weight="600" fill="#0f172a">Boston, MA</text>
<rect x="201.0" y="152" width="148.0" height="14" fill="#bfdbfe" rx="3" />
<rect x="201.0" y="152" width="51.8" height="14" fill="#1d4ed8" rx="3" />
<line x1="201.0" y1="150" x2="201.0" y2="168" stroke="#1d4ed8" stroke-width="2" />
<line x1="349.0" y1="150" x2="349.0" y2="168" stroke="#1d4ed8" stroke-width="2" />
<text x="357.024" y="163" font-size="11" fill="#0f172a">$1,152 – $4,780</text>
<text x="140" y="195" text-anchor="end" font-size="12" font-weight="600" fill="#0f172a">Denver, CO</text>
<rect x="196.1" y="184" width="132.4" height="14" fill="#bfdbfe" rx="3" />
<rect x="196.1" y="184" width="46.4" height="14" fill="#1d4ed8" rx="3" />
<line x1="196.1" y1="182" x2="196.1" y2="200" stroke="#1d4ed8" stroke-width="2" />
<line x1="328.5" y1="182" x2="328.5" y2="200" stroke="#1d4ed8" stroke-width="2" />
<text x="336.5016" y="195" font-size="11" fill="#0f172a">$1,031 – $4,277</text>
<text x="140" y="227" text-anchor="end" font-size="12" font-weight="600" fill="#0f172a">Atlanta, GA</text>
<rect x="193.0" y="216" width="122.8" height="14" fill="#bfdbfe" rx="3" />
<rect x="193.0" y="216" width="43.0" height="14" fill="#1d4ed8" rx="3" />
<line x1="193.0" y1="214" x2="193.0" y2="232" stroke="#1d4ed8" stroke-width="2" />
<line x1="315.9" y1="214" x2="315.9" y2="232" stroke="#1d4ed8" stroke-width="2" />
<text x="323.85360000000003" y="227" font-size="11" fill="#0f172a">$956 – $3,967</text>
<text x="140" y="259" text-anchor="end" font-size="12" font-weight="600" fill="#0f172a">Phoenix, AZ</text>
<rect x="193.0" y="248" width="122.7" height="14" fill="#bfdbfe" rx="3" />
<rect x="193.0" y="248" width="43.0" height="14" fill="#1d4ed8" rx="3" />
<line x1="193.0" y1="246" x2="193.0" y2="264" stroke="#1d4ed8" stroke-width="2" />
<line x1="315.7" y1="246" x2="315.7" y2="264" stroke="#1d4ed8" stroke-width="2" />
<text x="323.69039999999995" y="259" font-size="11" fill="#0f172a">$955 – $3,963</text>
<text x="140" y="291" text-anchor="end" font-size="12" font-weight="600" fill="#0f172a">Houston, TX</text>
<rect x="192.5" y="280" width="121.4" height="14" fill="#bfdbfe" rx="3" />
<rect x="192.5" y="280" width="42.5" height="14" fill="#1d4ed8" rx="3" />
<line x1="192.5" y1="278" x2="192.5" y2="296" stroke="#1d4ed8" stroke-width="2" />
<line x1="313.9" y1="278" x2="313.9" y2="296" stroke="#1d4ed8" stroke-width="2" />
<text x="321.89520000000005" y="291" font-size="11" fill="#0f172a">$944 – $3,919</text>
<text x="140" y="323" text-anchor="end" font-size="12" font-weight="600" fill="#0f172a">Memphis, TN</text>
<rect x="191.2" y="312" width="117.1" height="14" fill="#bfdbfe" rx="3" />
<rect x="191.2" y="312" width="41.0" height="14" fill="#1d4ed8" rx="3" />
<line x1="191.2" y1="310" x2="191.2" y2="328" stroke="#1d4ed8" stroke-width="2" />
<line x1="308.3" y1="310" x2="308.3" y2="328" stroke="#1d4ed8" stroke-width="2" />
<text x="316.3056" y="323" font-size="11" fill="#0f172a">$911 – $3,782</text>
</g>
<text x="360" y="358" text-anchor="middle" font-family="-apple-system, BlinkMacSystemFont, 'Segoe UI', Roboto, sans-serif" font-size="10" fill="#64748b">Source: Woogoro city-cost model, 2026 data. woogoro.com/methodology</text>
</svg>