<svg xmlns="http://www.w3.org/2000/svg" viewBox="0 0 720 364" width="720" height="364" role="img" aria-label="Gutter Installation price ranges across eight major U.S. metros in 2026, showing variation from Memphis, TN ($858-$1,287) to San Francisco, CA ($1,177-$1,765).">
<title>Gutter Installation Cost by Major U.S. Metro (2026)</title>
<desc>Gutter Installation price ranges across eight major U.S. metros in 2026, showing variation from Memphis, TN ($858-$1,287) to San Francisco, CA ($1,177-$1,765).</desc>
<rect x="0" y="0" width="720" height="364" fill="#ffffff" />
<text x="360" y="24" text-anchor="middle" font-family="-apple-system, BlinkMacSystemFont, 'Segoe UI', Roboto, sans-serif" font-size="16" font-weight="700" fill="#0f172a">Gutter Installation Cost by Major U.S. Metro (2026)</text>
<text x="360" y="44" text-anchor="middle" font-family="-apple-system, BlinkMacSystemFont, 'Segoe UI', Roboto, sans-serif" font-size="12" fill="#64748b">Based on BLS wage data and BEA regional cost-of-living indices</text>
<g stroke="#e2e8f0" stroke-width="1">
<line x1="154.0" y1="80" x2="154.0" y2="336" />
<line x1="235.6" y1="80" x2="235.6" y2="336" />
<line x1="317.2" y1="80" x2="317.2" y2="336" />
<line x1="398.8" y1="80" x2="398.8" y2="336" />
<line x1="480.4" y1="80" x2="480.4" y2="336" />
<line x1="562.0" y1="80" x2="562.0" y2="336" />
</g>
<g font-family="-apple-system, BlinkMacSystemFont, 'Segoe UI', Roboto, sans-serif" font-size="10" fill="#64748b">
<text x="154.0" y="76" text-anchor="middle">$0</text>
<text x="235.6" y="76" text-anchor="middle">$400</text>
<text x="317.2" y="76" text-anchor="middle">$800</text>
<text x="398.8" y="76" text-anchor="middle">$1,200</text>
<text x="480.4" y="76" text-anchor="middle">$1,600</text>
<text x="562.0" y="76" text-anchor="middle">$2,000</text>
</g>
<g font-family="-apple-system, BlinkMacSystemFont, 'Segoe UI', Roboto, sans-serif">
<text x="140" y="99" text-anchor="end" font-size="12" font-weight="600" fill="#0f172a">San Francisco, CA</text>
<rect x="394.1" y="88" width="120.0" height="14" fill="#bfdbfe" rx="3" />
<rect x="394.1" y="88" width="42.0" height="14" fill="#1d4ed8" rx="3" />
<line x1="394.1" y1="86" x2="394.1" y2="104" stroke="#1d4ed8" stroke-width="2" />
<line x1="514.1" y1="86" x2="514.1" y2="104" stroke="#1d4ed8" stroke-width="2" />
<text x="522.06" y="99" font-size="11" fill="#0f172a">$1,177 – $1,765</text>
<text x="140" y="131" text-anchor="end" font-size="12" font-weight="600" fill="#0f172a">Seattle, WA</text>
<rect x="386.4" y="120" width="116.3" height="14" fill="#bfdbfe" rx="3" />
<rect x="386.4" y="120" width="40.7" height="14" fill="#1d4ed8" rx="3" />
<line x1="386.4" y1="118" x2="386.4" y2="136" stroke="#1d4ed8" stroke-width="2" />
<line x1="502.6" y1="118" x2="502.6" y2="136" stroke="#1d4ed8" stroke-width="2" />
<text x="510.636" y="131" font-size="11" fill="#0f172a">$1,139 – $1,709</text>
<text x="140" y="163" text-anchor="end" font-size="12" font-weight="600" fill="#0f172a">Boston, MA</text>
<rect x="375.1" y="152" width="110.8" height="14" fill="#bfdbfe" rx="3" />
<rect x="375.1" y="152" width="38.8" height="14" fill="#1d4ed8" rx="3" />
<line x1="375.1" y1="150" x2="375.1" y2="168" stroke="#1d4ed8" stroke-width="2" />
<line x1="485.9" y1="150" x2="485.9" y2="168" stroke="#1d4ed8" stroke-width="2" />
<text x="493.908" y="163" font-size="11" fill="#0f172a">$1,084 – $1,627</text>
<text x="140" y="195" text-anchor="end" font-size="12" font-weight="600" fill="#0f172a">Denver, CO</text>
<rect x="351.9" y="184" width="98.9" height="14" fill="#bfdbfe" rx="3" />
<rect x="351.9" y="184" width="34.6" height="14" fill="#1d4ed8" rx="3" />
<line x1="351.9" y1="182" x2="351.9" y2="200" stroke="#1d4ed8" stroke-width="2" />
<line x1="450.8" y1="182" x2="450.8" y2="200" stroke="#1d4ed8" stroke-width="2" />
<text x="458.82" y="195" font-size="11" fill="#0f172a">$970 – $1,455</text>
<text x="140" y="227" text-anchor="end" font-size="12" font-weight="600" fill="#0f172a">Atlanta, GA</text>
<rect x="337.6" y="216" width="91.8" height="14" fill="#bfdbfe" rx="3" />
<rect x="337.6" y="216" width="32.1" height="14" fill="#1d4ed8" rx="3" />
<line x1="337.6" y1="214" x2="337.6" y2="232" stroke="#1d4ed8" stroke-width="2" />
<line x1="429.4" y1="214" x2="429.4" y2="232" stroke="#1d4ed8" stroke-width="2" />
<text x="437.40000000000003" y="227" font-size="11" fill="#0f172a">$900 – $1,350</text>
<text x="140" y="259" text-anchor="end" font-size="12" font-weight="600" fill="#0f172a">Phoenix, AZ</text>
<rect x="337.4" y="248" width="91.8" height="14" fill="#bfdbfe" rx="3" />
<rect x="337.4" y="248" width="32.1" height="14" fill="#1d4ed8" rx="3" />
<line x1="337.4" y1="246" x2="337.4" y2="264" stroke="#1d4ed8" stroke-width="2" />
<line x1="429.2" y1="246" x2="429.2" y2="264" stroke="#1d4ed8" stroke-width="2" />
<text x="437.19599999999997" y="259" font-size="11" fill="#0f172a">$899 – $1,349</text>
<text x="140" y="291" text-anchor="end" font-size="12" font-weight="600" fill="#0f172a">Houston, TX</text>
<rect x="335.4" y="280" width="90.8" height="14" fill="#bfdbfe" rx="3" />
<rect x="335.4" y="280" width="31.8" height="14" fill="#1d4ed8" rx="3" />
<line x1="335.4" y1="278" x2="335.4" y2="296" stroke="#1d4ed8" stroke-width="2" />
<line x1="426.1" y1="278" x2="426.1" y2="296" stroke="#1d4ed8" stroke-width="2" />
<text x="434.136" y="291" font-size="11" fill="#0f172a">$889 – $1,334</text>
<text x="140" y="323" text-anchor="end" font-size="12" font-weight="600" fill="#0f172a">Memphis, TN</text>
<rect x="329.0" y="312" width="87.5" height="14" fill="#bfdbfe" rx="3" />
<rect x="329.0" y="312" width="30.6" height="14" fill="#1d4ed8" rx="3" />
<line x1="329.0" y1="310" x2="329.0" y2="328" stroke="#1d4ed8" stroke-width="2" />
<line x1="416.5" y1="310" x2="416.5" y2="328" stroke="#1d4ed8" stroke-width="2" />
<text x="424.548" y="323" font-size="11" fill="#0f172a">$858 – $1,287</text>
</g>
<text x="360" y="358" text-anchor="middle" font-family="-apple-system, BlinkMacSystemFont, 'Segoe UI', Roboto, sans-serif" font-size="10" fill="#64748b">Source: Woogoro city-cost model, 2026 data. woogoro.com/methodology</text>
</svg>