<svg xmlns="http://www.w3.org/2000/svg" viewBox="0 0 720 364" width="720" height="364" role="img" aria-label="Insulation price ranges across eight major U.S. metros in 2026, showing variation from Memphis, TN ($1,144-$4,910) to San Francisco, CA ($1,569-$6,733).">
<title>Insulation Cost by Major U.S. Metro (2026)</title>
<desc>Insulation price ranges across eight major U.S. metros in 2026, showing variation from Memphis, TN ($1,144-$4,910) to San Francisco, CA ($1,569-$6,733).</desc>
<rect x="0" y="0" width="720" height="364" fill="#ffffff" />
<text x="360" y="24" text-anchor="middle" font-family="-apple-system, BlinkMacSystemFont, 'Segoe UI', Roboto, sans-serif" font-size="16" font-weight="700" fill="#0f172a">Insulation Cost by Major U.S. Metro (2026)</text>
<text x="360" y="44" text-anchor="middle" font-family="-apple-system, BlinkMacSystemFont, 'Segoe UI', Roboto, sans-serif" font-size="12" fill="#64748b">Based on BLS wage data and BEA regional cost-of-living indices</text>
<g stroke="#e2e8f0" stroke-width="1">
<line x1="154.0" y1="80" x2="154.0" y2="336" />
<line x1="235.6" y1="80" x2="235.6" y2="336" />
<line x1="317.2" y1="80" x2="317.2" y2="336" />
<line x1="398.8" y1="80" x2="398.8" y2="336" />
<line x1="480.4" y1="80" x2="480.4" y2="336" />
<line x1="562.0" y1="80" x2="562.0" y2="336" />
</g>
<g font-family="-apple-system, BlinkMacSystemFont, 'Segoe UI', Roboto, sans-serif" font-size="10" fill="#64748b">
<text x="154.0" y="76" text-anchor="middle">$0</text>
<text x="235.6" y="76" text-anchor="middle">$2,000</text>
<text x="317.2" y="76" text-anchor="middle">$4,000</text>
<text x="398.8" y="76" text-anchor="middle">$6,000</text>
<text x="480.4" y="76" text-anchor="middle">$8,000</text>
<text x="562.0" y="76" text-anchor="middle">$10,000</text>
</g>
<g font-family="-apple-system, BlinkMacSystemFont, 'Segoe UI', Roboto, sans-serif">
<text x="140" y="99" text-anchor="end" font-size="12" font-weight="600" fill="#0f172a">San Francisco, CA</text>
<rect x="218.0" y="88" width="210.7" height="14" fill="#bfdbfe" rx="3" />
<rect x="218.0" y="88" width="73.7" height="14" fill="#1d4ed8" rx="3" />
<line x1="218.0" y1="86" x2="218.0" y2="104" stroke="#1d4ed8" stroke-width="2" />
<line x1="428.7" y1="86" x2="428.7" y2="104" stroke="#1d4ed8" stroke-width="2" />
<text x="436.70640000000003" y="99" font-size="11" fill="#0f172a">$1,569 – $6,733</text>
<text x="140" y="131" text-anchor="end" font-size="12" font-weight="600" fill="#0f172a">Seattle, WA</text>
<rect x="216.0" y="120" width="204.0" height="14" fill="#bfdbfe" rx="3" />
<rect x="216.0" y="120" width="71.4" height="14" fill="#1d4ed8" rx="3" />
<line x1="216.0" y1="118" x2="216.0" y2="136" stroke="#1d4ed8" stroke-width="2" />
<line x1="419.9" y1="118" x2="419.9" y2="136" stroke="#1d4ed8" stroke-width="2" />
<text x="427.93440000000004" y="131" font-size="11" fill="#0f172a">$1,519 – $6,518</text>
<text x="140" y="163" text-anchor="end" font-size="12" font-weight="600" fill="#0f172a">Boston, MA</text>
<rect x="213.0" y="152" width="194.2" height="14" fill="#bfdbfe" rx="3" />
<rect x="213.0" y="152" width="68.0" height="14" fill="#1d4ed8" rx="3" />
<line x1="213.0" y1="150" x2="213.0" y2="168" stroke="#1d4ed8" stroke-width="2" />
<line x1="407.2" y1="150" x2="407.2" y2="168" stroke="#1d4ed8" stroke-width="2" />
<text x="415.164" y="163" font-size="11" fill="#0f172a">$1,446 – $6,205</text>
<text x="140" y="195" text-anchor="end" font-size="12" font-weight="600" fill="#0f172a">Denver, CO</text>
<rect x="206.8" y="184" width="173.7" height="14" fill="#bfdbfe" rx="3" />
<rect x="206.8" y="184" width="60.8" height="14" fill="#1d4ed8" rx="3" />
<line x1="206.8" y1="182" x2="206.8" y2="200" stroke="#1d4ed8" stroke-width="2" />
<line x1="380.5" y1="182" x2="380.5" y2="200" stroke="#1d4ed8" stroke-width="2" />
<text x="388.52160000000003" y="195" font-size="11" fill="#0f172a">$1,294 – $5,552</text>
<text x="140" y="227" text-anchor="end" font-size="12" font-weight="600" fill="#0f172a">Atlanta, GA</text>
<rect x="203.0" y="216" width="161.2" height="14" fill="#bfdbfe" rx="3" />
<rect x="203.0" y="216" width="56.4" height="14" fill="#1d4ed8" rx="3" />
<line x1="203.0" y1="214" x2="203.0" y2="232" stroke="#1d4ed8" stroke-width="2" />
<line x1="364.1" y1="214" x2="364.1" y2="232" stroke="#1d4ed8" stroke-width="2" />
<text x="372.12" y="227" font-size="11" fill="#0f172a">$1,200 – $5,150</text>
<text x="140" y="259" text-anchor="end" font-size="12" font-weight="600" fill="#0f172a">Phoenix, AZ</text>
<rect x="202.9" y="248" width="161.0" height="14" fill="#bfdbfe" rx="3" />
<rect x="202.9" y="248" width="56.3" height="14" fill="#1d4ed8" rx="3" />
<line x1="202.9" y1="246" x2="202.9" y2="264" stroke="#1d4ed8" stroke-width="2" />
<line x1="363.9" y1="246" x2="363.9" y2="264" stroke="#1d4ed8" stroke-width="2" />
<text x="371.916" y="259" font-size="11" fill="#0f172a">$1,199 – $5,145</text>
<text x="140" y="291" text-anchor="end" font-size="12" font-weight="600" fill="#0f172a">Houston, TX</text>
<rect x="202.3" y="280" width="159.2" height="14" fill="#bfdbfe" rx="3" />
<rect x="202.3" y="280" width="55.7" height="14" fill="#1d4ed8" rx="3" />
<line x1="202.3" y1="278" x2="202.3" y2="296" stroke="#1d4ed8" stroke-width="2" />
<line x1="361.5" y1="278" x2="361.5" y2="296" stroke="#1d4ed8" stroke-width="2" />
<text x="369.54960000000005" y="291" font-size="11" fill="#0f172a">$1,185 – $5,087</text>
<text x="140" y="323" text-anchor="end" font-size="12" font-weight="600" fill="#0f172a">Memphis, TN</text>
<rect x="200.7" y="312" width="153.7" height="14" fill="#bfdbfe" rx="3" />
<rect x="200.7" y="312" width="53.8" height="14" fill="#1d4ed8" rx="3" />
<line x1="200.7" y1="310" x2="200.7" y2="328" stroke="#1d4ed8" stroke-width="2" />
<line x1="354.3" y1="310" x2="354.3" y2="328" stroke="#1d4ed8" stroke-width="2" />
<text x="362.328" y="323" font-size="11" fill="#0f172a">$1,144 – $4,910</text>
</g>
<text x="360" y="358" text-anchor="middle" font-family="-apple-system, BlinkMacSystemFont, 'Segoe UI', Roboto, sans-serif" font-size="10" fill="#64748b">Source: Woogoro city-cost model, 2026 data. woogoro.com/methodology</text>
</svg>