<svg xmlns="http://www.w3.org/2000/svg" viewBox="0 0 720 364" width="720" height="364" role="img" aria-label="Kitchen Remodel price ranges across eight major U.S. metros in 2026, showing variation from Memphis, TN ($17,828-$47,667) to San Francisco, CA ($24,447-$65,365).">
<title>Kitchen Remodel Cost by Major U.S. Metro (2026)</title>
<desc>Kitchen Remodel price ranges across eight major U.S. metros in 2026, showing variation from Memphis, TN ($17,828-$47,667) to San Francisco, CA ($24,447-$65,365).</desc>
<rect x="0" y="0" width="720" height="364" fill="#ffffff" />
<text x="360" y="24" text-anchor="middle" font-family="-apple-system, BlinkMacSystemFont, 'Segoe UI', Roboto, sans-serif" font-size="16" font-weight="700" fill="#0f172a">Kitchen Remodel Cost by Major U.S. Metro (2026)</text>
<text x="360" y="44" text-anchor="middle" font-family="-apple-system, BlinkMacSystemFont, 'Segoe UI', Roboto, sans-serif" font-size="12" fill="#64748b">Based on BLS wage data and BEA regional cost-of-living indices</text>
<g stroke="#e2e8f0" stroke-width="1">
<line x1="154.0" y1="80" x2="154.0" y2="336" />
<line x1="235.6" y1="80" x2="235.6" y2="336" />
<line x1="317.2" y1="80" x2="317.2" y2="336" />
<line x1="398.8" y1="80" x2="398.8" y2="336" />
<line x1="480.4" y1="80" x2="480.4" y2="336" />
<line x1="562.0" y1="80" x2="562.0" y2="336" />
</g>
<g font-family="-apple-system, BlinkMacSystemFont, 'Segoe UI', Roboto, sans-serif" font-size="10" fill="#64748b">
<text x="154.0" y="76" text-anchor="middle">$0</text>
<text x="235.6" y="76" text-anchor="middle">$20,000</text>
<text x="317.2" y="76" text-anchor="middle">$40,000</text>
<text x="398.8" y="76" text-anchor="middle">$60,000</text>
<text x="480.4" y="76" text-anchor="middle">$80,000</text>
<text x="562.0" y="76" text-anchor="middle">$100,000</text>
</g>
<g font-family="-apple-system, BlinkMacSystemFont, 'Segoe UI', Roboto, sans-serif">
<text x="140" y="99" text-anchor="end" font-size="12" font-weight="600" fill="#0f172a">San Francisco, CA</text>
<rect x="253.7" y="88" width="166.9" height="14" fill="#bfdbfe" rx="3" />
<rect x="253.7" y="88" width="58.4" height="14" fill="#1d4ed8" rx="3" />
<line x1="253.7" y1="86" x2="253.7" y2="104" stroke="#1d4ed8" stroke-width="2" />
<line x1="420.7" y1="86" x2="420.7" y2="104" stroke="#1d4ed8" stroke-width="2" />
<text x="428.68919999999997" y="99" font-size="11" fill="#0f172a">$24,447 – $65,365</text>
<text x="140" y="131" text-anchor="end" font-size="12" font-weight="600" fill="#0f172a">Seattle, WA</text>
<rect x="250.6" y="120" width="161.6" height="14" fill="#bfdbfe" rx="3" />
<rect x="250.6" y="120" width="56.6" height="14" fill="#1d4ed8" rx="3" />
<line x1="250.6" y1="118" x2="250.6" y2="136" stroke="#1d4ed8" stroke-width="2" />
<line x1="412.2" y1="118" x2="412.2" y2="136" stroke="#1d4ed8" stroke-width="2" />
<text x="420.20688" y="131" font-size="11" fill="#0f172a">$23,669 – $63,286</text>
<text x="140" y="163" text-anchor="end" font-size="12" font-weight="600" fill="#0f172a">Boston, MA</text>
<rect x="245.9" y="152" width="153.9" height="14" fill="#bfdbfe" rx="3" />
<rect x="245.9" y="152" width="53.9" height="14" fill="#1d4ed8" rx="3" />
<line x1="245.9" y1="150" x2="245.9" y2="168" stroke="#1d4ed8" stroke-width="2" />
<line x1="399.8" y1="150" x2="399.8" y2="168" stroke="#1d4ed8" stroke-width="2" />
<text x="407.79144" y="163" font-size="11" fill="#0f172a">$22,531 – $60,243</text>
<text x="140" y="195" text-anchor="end" font-size="12" font-weight="600" fill="#0f172a">Denver, CO</text>
<rect x="236.3" y="184" width="137.7" height="14" fill="#bfdbfe" rx="3" />
<rect x="236.3" y="184" width="48.2" height="14" fill="#1d4ed8" rx="3" />
<line x1="236.3" y1="182" x2="236.3" y2="200" stroke="#1d4ed8" stroke-width="2" />
<line x1="373.9" y1="182" x2="373.9" y2="200" stroke="#1d4ed8" stroke-width="2" />
<text x="381.93240000000003" y="195" font-size="11" fill="#0f172a">$20,160 – $53,905</text>
<text x="140" y="227" text-anchor="end" font-size="12" font-weight="600" fill="#0f172a">Atlanta, GA</text>
<rect x="230.3" y="216" width="127.7" height="14" fill="#bfdbfe" rx="3" />
<rect x="230.3" y="216" width="44.7" height="14" fill="#1d4ed8" rx="3" />
<line x1="230.3" y1="214" x2="230.3" y2="232" stroke="#1d4ed8" stroke-width="2" />
<line x1="358.0" y1="214" x2="358.0" y2="232" stroke="#1d4ed8" stroke-width="2" />
<text x="366" y="227" font-size="11" fill="#0f172a">$18,700 – $50,000</text>
<text x="140" y="259" text-anchor="end" font-size="12" font-weight="600" fill="#0f172a">Phoenix, AZ</text>
<rect x="230.2" y="248" width="127.6" height="14" fill="#bfdbfe" rx="3" />
<rect x="230.2" y="248" width="44.7" height="14" fill="#1d4ed8" rx="3" />
<line x1="230.2" y1="246" x2="230.2" y2="264" stroke="#1d4ed8" stroke-width="2" />
<line x1="357.8" y1="246" x2="357.8" y2="264" stroke="#1d4ed8" stroke-width="2" />
<text x="365.79192" y="259" font-size="11" fill="#0f172a">$18,681 – $49,949</text>
<text x="140" y="291" text-anchor="end" font-size="12" font-weight="600" fill="#0f172a">Houston, TX</text>
<rect x="229.4" y="280" width="126.1" height="14" fill="#bfdbfe" rx="3" />
<rect x="229.4" y="280" width="44.2" height="14" fill="#1d4ed8" rx="3" />
<line x1="229.4" y1="278" x2="229.4" y2="296" stroke="#1d4ed8" stroke-width="2" />
<line x1="355.5" y1="278" x2="355.5" y2="296" stroke="#1d4ed8" stroke-width="2" />
<text x="363.51528" y="291" font-size="11" fill="#0f172a">$18,472 – $49,391</text>
<text x="140" y="323" text-anchor="end" font-size="12" font-weight="600" fill="#0f172a">Memphis, TN</text>
<rect x="226.7" y="312" width="121.7" height="14" fill="#bfdbfe" rx="3" />
<rect x="226.7" y="312" width="42.6" height="14" fill="#1d4ed8" rx="3" />
<line x1="226.7" y1="310" x2="226.7" y2="328" stroke="#1d4ed8" stroke-width="2" />
<line x1="348.5" y1="310" x2="348.5" y2="328" stroke="#1d4ed8" stroke-width="2" />
<text x="356.48136" y="323" font-size="11" fill="#0f172a">$17,828 – $47,667</text>
</g>
<text x="360" y="358" text-anchor="middle" font-family="-apple-system, BlinkMacSystemFont, 'Segoe UI', Roboto, sans-serif" font-size="10" fill="#64748b">Source: Woogoro city-cost model, 2026 data. woogoro.com/methodology</text>
</svg>