<svg xmlns="http://www.w3.org/2000/svg" viewBox="0 0 720 364" width="720" height="364" role="img" aria-label="Landscaping price ranges across eight major U.S. metros in 2026, showing variation from Memphis, TN ($5,672-$11,249) to San Francisco, CA ($7,778-$15,426).">
<title>Landscaping Cost by Major U.S. Metro (2026)</title>
<desc>Landscaping price ranges across eight major U.S. metros in 2026, showing variation from Memphis, TN ($5,672-$11,249) to San Francisco, CA ($7,778-$15,426).</desc>
<rect x="0" y="0" width="720" height="364" fill="#ffffff" />
<text x="360" y="24" text-anchor="middle" font-family="-apple-system, BlinkMacSystemFont, 'Segoe UI', Roboto, sans-serif" font-size="16" font-weight="700" fill="#0f172a">Landscaping Cost by Major U.S. Metro (2026)</text>
<text x="360" y="44" text-anchor="middle" font-family="-apple-system, BlinkMacSystemFont, 'Segoe UI', Roboto, sans-serif" font-size="12" fill="#64748b">Based on BLS wage data and BEA regional cost-of-living indices</text>
<g stroke="#e2e8f0" stroke-width="1">
<line x1="154.0" y1="80" x2="154.0" y2="336" />
<line x1="235.6" y1="80" x2="235.6" y2="336" />
<line x1="317.2" y1="80" x2="317.2" y2="336" />
<line x1="398.8" y1="80" x2="398.8" y2="336" />
<line x1="480.4" y1="80" x2="480.4" y2="336" />
<line x1="562.0" y1="80" x2="562.0" y2="336" />
</g>
<g font-family="-apple-system, BlinkMacSystemFont, 'Segoe UI', Roboto, sans-serif" font-size="10" fill="#64748b">
<text x="154.0" y="76" text-anchor="middle">$0</text>
<text x="235.6" y="76" text-anchor="middle">$4,000</text>
<text x="317.2" y="76" text-anchor="middle">$8,000</text>
<text x="398.8" y="76" text-anchor="middle">$12,000</text>
<text x="480.4" y="76" text-anchor="middle">$16,000</text>
<text x="562.0" y="76" text-anchor="middle">$20,000</text>
</g>
<g font-family="-apple-system, BlinkMacSystemFont, 'Segoe UI', Roboto, sans-serif">
<text x="140" y="99" text-anchor="end" font-size="12" font-weight="600" fill="#0f172a">San Francisco, CA</text>
<rect x="312.7" y="88" width="156.0" height="14" fill="#bfdbfe" rx="3" />
<rect x="312.7" y="88" width="54.6" height="14" fill="#1d4ed8" rx="3" />
<line x1="312.7" y1="86" x2="312.7" y2="104" stroke="#1d4ed8" stroke-width="2" />
<line x1="468.7" y1="86" x2="468.7" y2="104" stroke="#1d4ed8" stroke-width="2" />
<text x="476.6904" y="99" font-size="11" fill="#0f172a">$7,778 – $15,426</text>
<text x="140" y="131" text-anchor="end" font-size="12" font-weight="600" fill="#0f172a">Seattle, WA</text>
<rect x="307.6" y="120" width="151.0" height="14" fill="#bfdbfe" rx="3" />
<rect x="307.6" y="120" width="52.9" height="14" fill="#1d4ed8" rx="3" />
<line x1="307.6" y1="118" x2="307.6" y2="136" stroke="#1d4ed8" stroke-width="2" />
<line x1="458.7" y1="118" x2="458.7" y2="136" stroke="#1d4ed8" stroke-width="2" />
<text x="466.67400000000004" y="131" font-size="11" fill="#0f172a">$7,531 – $14,935</text>
<text x="140" y="163" text-anchor="end" font-size="12" font-weight="600" fill="#0f172a">Boston, MA</text>
<rect x="300.2" y="152" width="143.8" height="14" fill="#bfdbfe" rx="3" />
<rect x="300.2" y="152" width="50.3" height="14" fill="#1d4ed8" rx="3" />
<line x1="300.2" y1="150" x2="300.2" y2="168" stroke="#1d4ed8" stroke-width="2" />
<line x1="444.0" y1="150" x2="444.0" y2="168" stroke="#1d4ed8" stroke-width="2" />
<text x="452.0268" y="163" font-size="11" fill="#0f172a">$7,169 – $14,217</text>
<text x="140" y="195" text-anchor="end" font-size="12" font-weight="600" fill="#0f172a">Denver, CO</text>
<rect x="284.9" y="184" width="128.7" height="14" fill="#bfdbfe" rx="3" />
<rect x="284.9" y="184" width="45.0" height="14" fill="#1d4ed8" rx="3" />
<line x1="284.9" y1="182" x2="284.9" y2="200" stroke="#1d4ed8" stroke-width="2" />
<line x1="413.5" y1="182" x2="413.5" y2="200" stroke="#1d4ed8" stroke-width="2" />
<text x="421.5288" y="195" font-size="11" fill="#0f172a">$6,415 – $12,722</text>
<text x="140" y="227" text-anchor="end" font-size="12" font-weight="600" fill="#0f172a">Atlanta, GA</text>
<rect x="275.4" y="216" width="119.3" height="14" fill="#bfdbfe" rx="3" />
<rect x="275.4" y="216" width="41.8" height="14" fill="#1d4ed8" rx="3" />
<line x1="275.4" y1="214" x2="275.4" y2="232" stroke="#1d4ed8" stroke-width="2" />
<line x1="394.7" y1="214" x2="394.7" y2="232" stroke="#1d4ed8" stroke-width="2" />
<text x="402.72" y="227" font-size="11" fill="#0f172a">$5,950 – $11,800</text>
<text x="140" y="259" text-anchor="end" font-size="12" font-weight="600" fill="#0f172a">Phoenix, AZ</text>
<rect x="275.3" y="248" width="119.2" height="14" fill="#bfdbfe" rx="3" />
<rect x="275.3" y="248" width="41.7" height="14" fill="#1d4ed8" rx="3" />
<line x1="275.3" y1="246" x2="275.3" y2="264" stroke="#1d4ed8" stroke-width="2" />
<line x1="394.5" y1="246" x2="394.5" y2="264" stroke="#1d4ed8" stroke-width="2" />
<text x="402.4752" y="259" font-size="11" fill="#0f172a">$5,944 – $11,788</text>
<text x="140" y="291" text-anchor="end" font-size="12" font-weight="600" fill="#0f172a">Houston, TX</text>
<rect x="273.9" y="280" width="117.9" height="14" fill="#bfdbfe" rx="3" />
<rect x="273.9" y="280" width="41.3" height="14" fill="#1d4ed8" rx="3" />
<line x1="273.9" y1="278" x2="273.9" y2="296" stroke="#1d4ed8" stroke-width="2" />
<line x1="391.8" y1="278" x2="391.8" y2="296" stroke="#1d4ed8" stroke-width="2" />
<text x="399.7824" y="291" font-size="11" fill="#0f172a">$5,878 – $11,656</text>
<text x="140" y="323" text-anchor="end" font-size="12" font-weight="600" fill="#0f172a">Memphis, TN</text>
<rect x="269.7" y="312" width="113.8" height="14" fill="#bfdbfe" rx="3" />
<rect x="269.7" y="312" width="39.8" height="14" fill="#1d4ed8" rx="3" />
<line x1="269.7" y1="310" x2="269.7" y2="328" stroke="#1d4ed8" stroke-width="2" />
<line x1="383.5" y1="310" x2="383.5" y2="328" stroke="#1d4ed8" stroke-width="2" />
<text x="391.4796" y="323" font-size="11" fill="#0f172a">$5,672 – $11,249</text>
</g>
<text x="360" y="358" text-anchor="middle" font-family="-apple-system, BlinkMacSystemFont, 'Segoe UI', Roboto, sans-serif" font-size="10" fill="#64748b">Source: Woogoro city-cost model, 2026 data. woogoro.com/methodology</text>
</svg>