<svg xmlns="http://www.w3.org/2000/svg" viewBox="0 0 720 364" width="720" height="364" role="img" aria-label="Legal Fee (hourly) price ranges across eight major U.S. metros in 2026, showing variation from Memphis, TN ($212-$470) to San Francisco, CA ($290-$645).">
<title>Legal Fee (hourly) Cost by Major U.S. Metro (2026)</title>
<desc>Legal Fee (hourly) price ranges across eight major U.S. metros in 2026, showing variation from Memphis, TN ($212-$470) to San Francisco, CA ($290-$645).</desc>
<rect x="0" y="0" width="720" height="364" fill="#ffffff" />
<text x="360" y="24" text-anchor="middle" font-family="-apple-system, BlinkMacSystemFont, 'Segoe UI', Roboto, sans-serif" font-size="16" font-weight="700" fill="#0f172a">Legal Fee (hourly) Cost by Major U.S. Metro (2026)</text>
<text x="360" y="44" text-anchor="middle" font-family="-apple-system, BlinkMacSystemFont, 'Segoe UI', Roboto, sans-serif" font-size="12" fill="#64748b">Based on BLS wage data and BEA regional cost-of-living indices</text>
<g stroke="#e2e8f0" stroke-width="1">
<line x1="154.0" y1="80" x2="154.0" y2="336" />
<line x1="235.6" y1="80" x2="235.6" y2="336" />
<line x1="317.2" y1="80" x2="317.2" y2="336" />
<line x1="398.8" y1="80" x2="398.8" y2="336" />
<line x1="480.4" y1="80" x2="480.4" y2="336" />
<line x1="562.0" y1="80" x2="562.0" y2="336" />
</g>
<g font-family="-apple-system, BlinkMacSystemFont, 'Segoe UI', Roboto, sans-serif" font-size="10" fill="#64748b">
<text x="154.0" y="76" text-anchor="middle">$0</text>
<text x="235.6" y="76" text-anchor="middle">$200</text>
<text x="317.2" y="76" text-anchor="middle">$400</text>
<text x="398.8" y="76" text-anchor="middle">$600</text>
<text x="480.4" y="76" text-anchor="middle">$800</text>
<text x="562.0" y="76" text-anchor="middle">$1,000</text>
</g>
<g font-family="-apple-system, BlinkMacSystemFont, 'Segoe UI', Roboto, sans-serif">
<text x="140" y="99" text-anchor="end" font-size="12" font-weight="600" fill="#0f172a">San Francisco, CA</text>
<rect x="272.3" y="88" width="144.8" height="14" fill="#bfdbfe" rx="3" />
<rect x="272.3" y="88" width="50.7" height="14" fill="#1d4ed8" rx="3" />
<line x1="272.3" y1="86" x2="272.3" y2="104" stroke="#1d4ed8" stroke-width="2" />
<line x1="417.2" y1="86" x2="417.2" y2="104" stroke="#1d4ed8" stroke-width="2" />
<text x="425.16" y="99" font-size="11" fill="#0f172a">$290 – $645</text>
<text x="140" y="131" text-anchor="end" font-size="12" font-weight="600" fill="#0f172a">Seattle, WA</text>
<rect x="268.6" y="120" width="139.9" height="14" fill="#bfdbfe" rx="3" />
<rect x="268.6" y="120" width="49.0" height="14" fill="#1d4ed8" rx="3" />
<line x1="268.6" y1="118" x2="268.6" y2="136" stroke="#1d4ed8" stroke-width="2" />
<line x1="408.6" y1="118" x2="408.6" y2="136" stroke="#1d4ed8" stroke-width="2" />
<text x="416.592" y="131" font-size="11" fill="#0f172a">$281 – $624</text>
<text x="140" y="163" text-anchor="end" font-size="12" font-weight="600" fill="#0f172a">Boston, MA</text>
<rect x="262.9" y="152" width="133.4" height="14" fill="#bfdbfe" rx="3" />
<rect x="262.9" y="152" width="46.7" height="14" fill="#1d4ed8" rx="3" />
<line x1="262.9" y1="150" x2="262.9" y2="168" stroke="#1d4ed8" stroke-width="2" />
<line x1="396.4" y1="150" x2="396.4" y2="168" stroke="#1d4ed8" stroke-width="2" />
<text x="404.352" y="163" font-size="11" fill="#0f172a">$267 – $594</text>
<text x="140" y="195" text-anchor="end" font-size="12" font-weight="600" fill="#0f172a">Denver, CO</text>
<rect x="251.5" y="184" width="119.5" height="14" fill="#bfdbfe" rx="3" />
<rect x="251.5" y="184" width="41.8" height="14" fill="#1d4ed8" rx="3" />
<line x1="251.5" y1="182" x2="251.5" y2="200" stroke="#1d4ed8" stroke-width="2" />
<line x1="371.1" y1="182" x2="371.1" y2="200" stroke="#1d4ed8" stroke-width="2" />
<text x="379.05600000000004" y="195" font-size="11" fill="#0f172a">$239 – $532</text>
<text x="140" y="227" text-anchor="end" font-size="12" font-weight="600" fill="#0f172a">Atlanta, GA</text>
<rect x="244.6" y="216" width="110.6" height="14" fill="#bfdbfe" rx="3" />
<rect x="244.6" y="216" width="38.7" height="14" fill="#1d4ed8" rx="3" />
<line x1="244.6" y1="214" x2="244.6" y2="232" stroke="#1d4ed8" stroke-width="2" />
<line x1="355.1" y1="214" x2="355.1" y2="232" stroke="#1d4ed8" stroke-width="2" />
<text x="363.144" y="227" font-size="11" fill="#0f172a">$222 – $493</text>
<text x="140" y="259" text-anchor="end" font-size="12" font-weight="600" fill="#0f172a">Phoenix, AZ</text>
<rect x="244.6" y="248" width="110.6" height="14" fill="#bfdbfe" rx="3" />
<rect x="244.6" y="248" width="38.7" height="14" fill="#1d4ed8" rx="3" />
<line x1="244.6" y1="246" x2="244.6" y2="264" stroke="#1d4ed8" stroke-width="2" />
<line x1="355.1" y1="246" x2="355.1" y2="264" stroke="#1d4ed8" stroke-width="2" />
<text x="363.144" y="259" font-size="11" fill="#0f172a">$222 – $493</text>
<text x="140" y="291" text-anchor="end" font-size="12" font-weight="600" fill="#0f172a">Houston, TX</text>
<rect x="243.4" y="280" width="109.3" height="14" fill="#bfdbfe" rx="3" />
<rect x="243.4" y="280" width="38.3" height="14" fill="#1d4ed8" rx="3" />
<line x1="243.4" y1="278" x2="243.4" y2="296" stroke="#1d4ed8" stroke-width="2" />
<line x1="352.7" y1="278" x2="352.7" y2="296" stroke="#1d4ed8" stroke-width="2" />
<text x="360.696" y="291" font-size="11" fill="#0f172a">$219 – $487</text>
<text x="140" y="323" text-anchor="end" font-size="12" font-weight="600" fill="#0f172a">Memphis, TN</text>
<rect x="240.5" y="312" width="105.3" height="14" fill="#bfdbfe" rx="3" />
<rect x="240.5" y="312" width="36.8" height="14" fill="#1d4ed8" rx="3" />
<line x1="240.5" y1="310" x2="240.5" y2="328" stroke="#1d4ed8" stroke-width="2" />
<line x1="345.8" y1="310" x2="345.8" y2="328" stroke="#1d4ed8" stroke-width="2" />
<text x="353.76" y="323" font-size="11" fill="#0f172a">$212 – $470</text>
</g>
<text x="360" y="358" text-anchor="middle" font-family="-apple-system, BlinkMacSystemFont, 'Segoe UI', Roboto, sans-serif" font-size="10" fill="#64748b">Source: Woogoro city-cost model, 2026 data. woogoro.com/methodology</text>
</svg>