<svg xmlns="http://www.w3.org/2000/svg" viewBox="0 0 720 364" width="720" height="364" role="img" aria-label="Medical Bill price ranges across eight major U.S. metros in 2026, showing variation from Memphis, TN ($141-$4,700) to San Francisco, CA ($193-$6,445).">
<title>Medical Bill Cost by Major U.S. Metro (2026)</title>
<desc>Medical Bill price ranges across eight major U.S. metros in 2026, showing variation from Memphis, TN ($141-$4,700) to San Francisco, CA ($193-$6,445).</desc>
<rect x="0" y="0" width="720" height="364" fill="#ffffff" />
<text x="360" y="24" text-anchor="middle" font-family="-apple-system, BlinkMacSystemFont, 'Segoe UI', Roboto, sans-serif" font-size="16" font-weight="700" fill="#0f172a">Medical Bill Cost by Major U.S. Metro (2026)</text>
<text x="360" y="44" text-anchor="middle" font-family="-apple-system, BlinkMacSystemFont, 'Segoe UI', Roboto, sans-serif" font-size="12" fill="#64748b">Based on BLS wage data and BEA regional cost-of-living indices</text>
<g stroke="#e2e8f0" stroke-width="1">
<line x1="154.0" y1="80" x2="154.0" y2="336" />
<line x1="235.6" y1="80" x2="235.6" y2="336" />
<line x1="317.2" y1="80" x2="317.2" y2="336" />
<line x1="398.8" y1="80" x2="398.8" y2="336" />
<line x1="480.4" y1="80" x2="480.4" y2="336" />
<line x1="562.0" y1="80" x2="562.0" y2="336" />
</g>
<g font-family="-apple-system, BlinkMacSystemFont, 'Segoe UI', Roboto, sans-serif" font-size="10" fill="#64748b">
<text x="154.0" y="76" text-anchor="middle">$0</text>
<text x="235.6" y="76" text-anchor="middle">$2,000</text>
<text x="317.2" y="76" text-anchor="middle">$4,000</text>
<text x="398.8" y="76" text-anchor="middle">$6,000</text>
<text x="480.4" y="76" text-anchor="middle">$8,000</text>
<text x="562.0" y="76" text-anchor="middle">$10,000</text>
</g>
<g font-family="-apple-system, BlinkMacSystemFont, 'Segoe UI', Roboto, sans-serif">
<text x="140" y="99" text-anchor="end" font-size="12" font-weight="600" fill="#0f172a">San Francisco, CA</text>
<rect x="161.9" y="88" width="255.1" height="14" fill="#bfdbfe" rx="3" />
<rect x="161.9" y="88" width="89.3" height="14" fill="#1d4ed8" rx="3" />
<line x1="161.9" y1="86" x2="161.9" y2="104" stroke="#1d4ed8" stroke-width="2" />
<line x1="417.0" y1="86" x2="417.0" y2="104" stroke="#1d4ed8" stroke-width="2" />
<text x="424.95599999999996" y="99" font-size="11" fill="#0f172a">$193 – $6,445</text>
<text x="140" y="131" text-anchor="end" font-size="12" font-weight="600" fill="#0f172a">Seattle, WA</text>
<rect x="161.6" y="120" width="247.0" height="14" fill="#bfdbfe" rx="3" />
<rect x="161.6" y="120" width="86.4" height="14" fill="#1d4ed8" rx="3" />
<line x1="161.6" y1="118" x2="161.6" y2="136" stroke="#1d4ed8" stroke-width="2" />
<line x1="408.6" y1="118" x2="408.6" y2="136" stroke="#1d4ed8" stroke-width="2" />
<text x="416.592" y="131" font-size="11" fill="#0f172a">$187 – $6,240</text>
<text x="140" y="163" text-anchor="end" font-size="12" font-weight="600" fill="#0f172a">Boston, MA</text>
<rect x="161.3" y="152" width="235.1" height="14" fill="#bfdbfe" rx="3" />
<rect x="161.3" y="152" width="82.3" height="14" fill="#1d4ed8" rx="3" />
<line x1="161.3" y1="150" x2="161.3" y2="168" stroke="#1d4ed8" stroke-width="2" />
<line x1="396.4" y1="150" x2="396.4" y2="168" stroke="#1d4ed8" stroke-width="2" />
<text x="404.352" y="163" font-size="11" fill="#0f172a">$178 – $5,940</text>
<text x="140" y="195" text-anchor="end" font-size="12" font-weight="600" fill="#0f172a">Denver, CO</text>
<rect x="160.5" y="184" width="210.3" height="14" fill="#bfdbfe" rx="3" />
<rect x="160.5" y="184" width="73.6" height="14" fill="#1d4ed8" rx="3" />
<line x1="160.5" y1="182" x2="160.5" y2="200" stroke="#1d4ed8" stroke-width="2" />
<line x1="370.9" y1="182" x2="370.9" y2="200" stroke="#1d4ed8" stroke-width="2" />
<text x="378.852" y="195" font-size="11" fill="#0f172a">$160 – $5,315</text>
<text x="140" y="227" text-anchor="end" font-size="12" font-weight="600" fill="#0f172a">Atlanta, GA</text>
<rect x="160.0" y="216" width="195.1" height="14" fill="#bfdbfe" rx="3" />
<rect x="160.0" y="216" width="68.3" height="14" fill="#1d4ed8" rx="3" />
<line x1="160.0" y1="214" x2="160.0" y2="232" stroke="#1d4ed8" stroke-width="2" />
<line x1="355.1" y1="214" x2="355.1" y2="232" stroke="#1d4ed8" stroke-width="2" />
<text x="363.144" y="227" font-size="11" fill="#0f172a">$148 – $4,930</text>
<text x="140" y="259" text-anchor="end" font-size="12" font-weight="600" fill="#0f172a">Phoenix, AZ</text>
<rect x="160.0" y="248" width="194.9" height="14" fill="#bfdbfe" rx="3" />
<rect x="160.0" y="248" width="68.2" height="14" fill="#1d4ed8" rx="3" />
<line x1="160.0" y1="246" x2="160.0" y2="264" stroke="#1d4ed8" stroke-width="2" />
<line x1="354.9" y1="246" x2="354.9" y2="264" stroke="#1d4ed8" stroke-width="2" />
<text x="362.94" y="259" font-size="11" fill="#0f172a">$148 – $4,925</text>
<text x="140" y="291" text-anchor="end" font-size="12" font-weight="600" fill="#0f172a">Houston, TX</text>
<rect x="160.0" y="280" width="192.7" height="14" fill="#bfdbfe" rx="3" />
<rect x="160.0" y="280" width="67.5" height="14" fill="#1d4ed8" rx="3" />
<line x1="160.0" y1="278" x2="160.0" y2="296" stroke="#1d4ed8" stroke-width="2" />
<line x1="352.7" y1="278" x2="352.7" y2="296" stroke="#1d4ed8" stroke-width="2" />
<text x="360.696" y="291" font-size="11" fill="#0f172a">$146 – $4,870</text>
<text x="140" y="323" text-anchor="end" font-size="12" font-weight="600" fill="#0f172a">Memphis, TN</text>
<rect x="159.8" y="312" width="186.0" height="14" fill="#bfdbfe" rx="3" />
<rect x="159.8" y="312" width="65.1" height="14" fill="#1d4ed8" rx="3" />
<line x1="159.8" y1="310" x2="159.8" y2="328" stroke="#1d4ed8" stroke-width="2" />
<line x1="345.8" y1="310" x2="345.8" y2="328" stroke="#1d4ed8" stroke-width="2" />
<text x="353.76" y="323" font-size="11" fill="#0f172a">$141 – $4,700</text>
</g>
<text x="360" y="358" text-anchor="middle" font-family="-apple-system, BlinkMacSystemFont, 'Segoe UI', Roboto, sans-serif" font-size="10" fill="#64748b">Source: Woogoro city-cost model, 2026 data. woogoro.com/methodology</text>
</svg>