<svg xmlns="http://www.w3.org/2000/svg" viewBox="0 0 720 364" width="720" height="364" role="img" aria-label="Moving Service price ranges across eight major U.S. metros in 2026, showing variation from Memphis, TN ($564-$7,050) to San Francisco, CA ($774-$9,668).">
<title>Moving Service Cost by Major U.S. Metro (2026)</title>
<desc>Moving Service price ranges across eight major U.S. metros in 2026, showing variation from Memphis, TN ($564-$7,050) to San Francisco, CA ($774-$9,668).</desc>
<rect x="0" y="0" width="720" height="364" fill="#ffffff" />
<text x="360" y="24" text-anchor="middle" font-family="-apple-system, BlinkMacSystemFont, 'Segoe UI', Roboto, sans-serif" font-size="16" font-weight="700" fill="#0f172a">Moving Service Cost by Major U.S. Metro (2026)</text>
<text x="360" y="44" text-anchor="middle" font-family="-apple-system, BlinkMacSystemFont, 'Segoe UI', Roboto, sans-serif" font-size="12" fill="#64748b">Based on BLS wage data and BEA regional cost-of-living indices</text>
<g stroke="#e2e8f0" stroke-width="1">
<line x1="154.0" y1="80" x2="154.0" y2="336" />
<line x1="235.6" y1="80" x2="235.6" y2="336" />
<line x1="317.2" y1="80" x2="317.2" y2="336" />
<line x1="398.8" y1="80" x2="398.8" y2="336" />
<line x1="480.4" y1="80" x2="480.4" y2="336" />
<line x1="562.0" y1="80" x2="562.0" y2="336" />
</g>
<g font-family="-apple-system, BlinkMacSystemFont, 'Segoe UI', Roboto, sans-serif" font-size="10" fill="#64748b">
<text x="154.0" y="76" text-anchor="middle">$0</text>
<text x="235.6" y="76" text-anchor="middle">$2,000</text>
<text x="317.2" y="76" text-anchor="middle">$4,000</text>
<text x="398.8" y="76" text-anchor="middle">$6,000</text>
<text x="480.4" y="76" text-anchor="middle">$8,000</text>
<text x="562.0" y="76" text-anchor="middle">$10,000</text>
</g>
<g font-family="-apple-system, BlinkMacSystemFont, 'Segoe UI', Roboto, sans-serif">
<text x="140" y="99" text-anchor="end" font-size="12" font-weight="600" fill="#0f172a">San Francisco, CA</text>
<rect x="185.6" y="88" width="362.9" height="14" fill="#bfdbfe" rx="3" />
<rect x="185.6" y="88" width="127.0" height="14" fill="#1d4ed8" rx="3" />
<line x1="185.6" y1="86" x2="185.6" y2="104" stroke="#1d4ed8" stroke-width="2" />
<line x1="548.5" y1="86" x2="548.5" y2="104" stroke="#1d4ed8" stroke-width="2" />
<text x="556.4544000000001" y="99" font-size="11" fill="#0f172a">$774 – $9,668</text>
<text x="140" y="131" text-anchor="end" font-size="12" font-weight="600" fill="#0f172a">Seattle, WA</text>
<rect x="184.6" y="120" width="351.3" height="14" fill="#bfdbfe" rx="3" />
<rect x="184.6" y="120" width="123.0" height="14" fill="#1d4ed8" rx="3" />
<line x1="184.6" y1="118" x2="184.6" y2="136" stroke="#1d4ed8" stroke-width="2" />
<line x1="535.9" y1="118" x2="535.9" y2="136" stroke="#1d4ed8" stroke-width="2" />
<text x="543.888" y="131" font-size="11" fill="#0f172a">$749 – $9,360</text>
<text x="140" y="163" text-anchor="end" font-size="12" font-weight="600" fill="#0f172a">Boston, MA</text>
<rect x="183.1" y="152" width="334.4" height="14" fill="#bfdbfe" rx="3" />
<rect x="183.1" y="152" width="117.1" height="14" fill="#1d4ed8" rx="3" />
<line x1="183.1" y1="150" x2="183.1" y2="168" stroke="#1d4ed8" stroke-width="2" />
<line x1="517.5" y1="150" x2="517.5" y2="168" stroke="#1d4ed8" stroke-width="2" />
<text x="525.528" y="163" font-size="11" fill="#0f172a">$713 – $8,910</text>
<text x="140" y="195" text-anchor="end" font-size="12" font-weight="600" fill="#0f172a">Denver, CO</text>
<rect x="180.0" y="184" width="299.3" height="14" fill="#bfdbfe" rx="3" />
<rect x="180.0" y="184" width="104.7" height="14" fill="#1d4ed8" rx="3" />
<line x1="180.0" y1="182" x2="180.0" y2="200" stroke="#1d4ed8" stroke-width="2" />
<line x1="479.3" y1="182" x2="479.3" y2="200" stroke="#1d4ed8" stroke-width="2" />
<text x="487.2984" y="195" font-size="11" fill="#0f172a">$638 – $7,973</text>
<text x="140" y="227" text-anchor="end" font-size="12" font-weight="600" fill="#0f172a">Atlanta, GA</text>
<rect x="178.2" y="216" width="277.6" height="14" fill="#bfdbfe" rx="3" />
<rect x="178.2" y="216" width="97.1" height="14" fill="#1d4ed8" rx="3" />
<line x1="178.2" y1="214" x2="178.2" y2="232" stroke="#1d4ed8" stroke-width="2" />
<line x1="455.7" y1="214" x2="455.7" y2="232" stroke="#1d4ed8" stroke-width="2" />
<text x="463.716" y="227" font-size="11" fill="#0f172a">$592 – $7,395</text>
<text x="140" y="259" text-anchor="end" font-size="12" font-weight="600" fill="#0f172a">Phoenix, AZ</text>
<rect x="178.1" y="248" width="277.3" height="14" fill="#bfdbfe" rx="3" />
<rect x="178.1" y="248" width="97.1" height="14" fill="#1d4ed8" rx="3" />
<line x1="178.1" y1="246" x2="178.1" y2="264" stroke="#1d4ed8" stroke-width="2" />
<line x1="455.4" y1="246" x2="455.4" y2="264" stroke="#1d4ed8" stroke-width="2" />
<text x="463.4304" y="259" font-size="11" fill="#0f172a">$591 – $7,388</text>
<text x="140" y="291" text-anchor="end" font-size="12" font-weight="600" fill="#0f172a">Houston, TX</text>
<rect x="177.9" y="280" width="274.2" height="14" fill="#bfdbfe" rx="3" />
<rect x="177.9" y="280" width="96.0" height="14" fill="#1d4ed8" rx="3" />
<line x1="177.9" y1="278" x2="177.9" y2="296" stroke="#1d4ed8" stroke-width="2" />
<line x1="452.0" y1="278" x2="452.0" y2="296" stroke="#1d4ed8" stroke-width="2" />
<text x="460.04400000000004" y="291" font-size="11" fill="#0f172a">$585 – $7,305</text>
<text x="140" y="323" text-anchor="end" font-size="12" font-weight="600" fill="#0f172a">Memphis, TN</text>
<rect x="177.0" y="312" width="264.6" height="14" fill="#bfdbfe" rx="3" />
<rect x="177.0" y="312" width="92.6" height="14" fill="#1d4ed8" rx="3" />
<line x1="177.0" y1="310" x2="177.0" y2="328" stroke="#1d4ed8" stroke-width="2" />
<line x1="441.6" y1="310" x2="441.6" y2="328" stroke="#1d4ed8" stroke-width="2" />
<text x="449.64" y="323" font-size="11" fill="#0f172a">$564 – $7,050</text>
</g>
<text x="360" y="358" text-anchor="middle" font-family="-apple-system, BlinkMacSystemFont, 'Segoe UI', Roboto, sans-serif" font-size="10" fill="#64748b">Source: Woogoro city-cost model, 2026 data. woogoro.com/methodology</text>
</svg>