<svg xmlns="http://www.w3.org/2000/svg" viewBox="0 0 720 364" width="720" height="364" role="img" aria-label="House Painting price ranges across eight major U.S. metros in 2026, showing variation from Memphis, TN ($4,767-$9,724) to San Francisco, CA ($6,537-$13,334).">
<title>House Painting Cost by Major U.S. Metro (2026)</title>
<desc>House Painting price ranges across eight major U.S. metros in 2026, showing variation from Memphis, TN ($4,767-$9,724) to San Francisco, CA ($6,537-$13,334).</desc>
<rect x="0" y="0" width="720" height="364" fill="#ffffff" />
<text x="360" y="24" text-anchor="middle" font-family="-apple-system, BlinkMacSystemFont, 'Segoe UI', Roboto, sans-serif" font-size="16" font-weight="700" fill="#0f172a">House Painting Cost by Major U.S. Metro (2026)</text>
<text x="360" y="44" text-anchor="middle" font-family="-apple-system, BlinkMacSystemFont, 'Segoe UI', Roboto, sans-serif" font-size="12" fill="#64748b">Based on BLS wage data and BEA regional cost-of-living indices</text>
<g stroke="#e2e8f0" stroke-width="1">
<line x1="154.0" y1="80" x2="154.0" y2="336" />
<line x1="235.6" y1="80" x2="235.6" y2="336" />
<line x1="317.2" y1="80" x2="317.2" y2="336" />
<line x1="398.8" y1="80" x2="398.8" y2="336" />
<line x1="480.4" y1="80" x2="480.4" y2="336" />
<line x1="562.0" y1="80" x2="562.0" y2="336" />
</g>
<g font-family="-apple-system, BlinkMacSystemFont, 'Segoe UI', Roboto, sans-serif" font-size="10" fill="#64748b">
<text x="154.0" y="76" text-anchor="middle">$0</text>
<text x="235.6" y="76" text-anchor="middle">$4,000</text>
<text x="317.2" y="76" text-anchor="middle">$8,000</text>
<text x="398.8" y="76" text-anchor="middle">$12,000</text>
<text x="480.4" y="76" text-anchor="middle">$16,000</text>
<text x="562.0" y="76" text-anchor="middle">$20,000</text>
</g>
<g font-family="-apple-system, BlinkMacSystemFont, 'Segoe UI', Roboto, sans-serif">
<text x="140" y="99" text-anchor="end" font-size="12" font-weight="600" fill="#0f172a">San Francisco, CA</text>
<rect x="287.4" y="88" width="138.7" height="14" fill="#bfdbfe" rx="3" />
<rect x="287.4" y="88" width="48.5" height="14" fill="#1d4ed8" rx="3" />
<line x1="287.4" y1="86" x2="287.4" y2="104" stroke="#1d4ed8" stroke-width="2" />
<line x1="426.0" y1="86" x2="426.0" y2="104" stroke="#1d4ed8" stroke-width="2" />
<text x="434.0136" y="99" font-size="11" fill="#0f172a">$6,537 – $13,334</text>
<text x="140" y="131" text-anchor="end" font-size="12" font-weight="600" fill="#0f172a">Seattle, WA</text>
<rect x="283.1" y="120" width="134.3" height="14" fill="#bfdbfe" rx="3" />
<rect x="283.1" y="120" width="47.0" height="14" fill="#1d4ed8" rx="3" />
<line x1="283.1" y1="118" x2="283.1" y2="136" stroke="#1d4ed8" stroke-width="2" />
<line x1="417.4" y1="118" x2="417.4" y2="136" stroke="#1d4ed8" stroke-width="2" />
<text x="425.364" y="131" font-size="11" fill="#0f172a">$6,329 – $12,910</text>
<text x="140" y="163" text-anchor="end" font-size="12" font-weight="600" fill="#0f172a">Boston, MA</text>
<rect x="276.9" y="152" width="127.8" height="14" fill="#bfdbfe" rx="3" />
<rect x="276.9" y="152" width="44.7" height="14" fill="#1d4ed8" rx="3" />
<line x1="276.9" y1="150" x2="276.9" y2="168" stroke="#1d4ed8" stroke-width="2" />
<line x1="404.7" y1="150" x2="404.7" y2="168" stroke="#1d4ed8" stroke-width="2" />
<text x="412.716" y="163" font-size="11" fill="#0f172a">$6,024 – $12,290</text>
<text x="140" y="195" text-anchor="end" font-size="12" font-weight="600" fill="#0f172a">Denver, CO</text>
<rect x="264.0" y="184" width="114.4" height="14" fill="#bfdbfe" rx="3" />
<rect x="264.0" y="184" width="40.0" height="14" fill="#1d4ed8" rx="3" />
<line x1="264.0" y1="182" x2="264.0" y2="200" stroke="#1d4ed8" stroke-width="2" />
<line x1="378.3" y1="182" x2="378.3" y2="200" stroke="#1d4ed8" stroke-width="2" />
<text x="386.3388" y="195" font-size="11" fill="#0f172a">$5,390 – $10,997</text>
<text x="140" y="227" text-anchor="end" font-size="12" font-weight="600" fill="#0f172a">Atlanta, GA</text>
<rect x="256.0" y="216" width="106.1" height="14" fill="#bfdbfe" rx="3" />
<rect x="256.0" y="216" width="37.1" height="14" fill="#1d4ed8" rx="3" />
<line x1="256.0" y1="214" x2="256.0" y2="232" stroke="#1d4ed8" stroke-width="2" />
<line x1="362.1" y1="214" x2="362.1" y2="232" stroke="#1d4ed8" stroke-width="2" />
<text x="370.08000000000004" y="227" font-size="11" fill="#0f172a">$5,000 – $10,200</text>
<text x="140" y="259" text-anchor="end" font-size="12" font-weight="600" fill="#0f172a">Phoenix, AZ</text>
<rect x="255.9" y="248" width="106.0" height="14" fill="#bfdbfe" rx="3" />
<rect x="255.9" y="248" width="37.1" height="14" fill="#1d4ed8" rx="3" />
<line x1="255.9" y1="246" x2="255.9" y2="264" stroke="#1d4ed8" stroke-width="2" />
<line x1="361.9" y1="246" x2="361.9" y2="264" stroke="#1d4ed8" stroke-width="2" />
<text x="369.876" y="259" font-size="11" fill="#0f172a">$4,995 – $10,190</text>
<text x="140" y="291" text-anchor="end" font-size="12" font-weight="600" fill="#0f172a">Houston, TX</text>
<rect x="254.8" y="280" width="104.8" height="14" fill="#bfdbfe" rx="3" />
<rect x="254.8" y="280" width="36.7" height="14" fill="#1d4ed8" rx="3" />
<line x1="254.8" y1="278" x2="254.8" y2="296" stroke="#1d4ed8" stroke-width="2" />
<line x1="359.6" y1="278" x2="359.6" y2="296" stroke="#1d4ed8" stroke-width="2" />
<text x="367.5504" y="291" font-size="11" fill="#0f172a">$4,939 – $10,076</text>
<text x="140" y="323" text-anchor="end" font-size="12" font-weight="600" fill="#0f172a">Memphis, TN</text>
<rect x="251.2" y="312" width="101.1" height="14" fill="#bfdbfe" rx="3" />
<rect x="251.2" y="312" width="35.4" height="14" fill="#1d4ed8" rx="3" />
<line x1="251.2" y1="310" x2="251.2" y2="328" stroke="#1d4ed8" stroke-width="2" />
<line x1="352.4" y1="310" x2="352.4" y2="328" stroke="#1d4ed8" stroke-width="2" />
<text x="360.3696" y="323" font-size="11" fill="#0f172a">$4,767 – $9,724</text>
</g>
<text x="360" y="358" text-anchor="middle" font-family="-apple-system, BlinkMacSystemFont, 'Segoe UI', Roboto, sans-serif" font-size="10" fill="#64748b">Source: Woogoro city-cost model, 2026 data. woogoro.com/methodology</text>
</svg>