<svg xmlns="http://www.w3.org/2000/svg" viewBox="0 0 720 364" width="720" height="364" role="img" aria-label="Plumbing Service price ranges across eight major U.S. metros in 2026, showing variation from Memphis, TN ($429-$7,984) to San Francisco, CA ($588-$10,949).">
<title>Plumbing Service Cost by Major U.S. Metro (2026)</title>
<desc>Plumbing Service price ranges across eight major U.S. metros in 2026, showing variation from Memphis, TN ($429-$7,984) to San Francisco, CA ($588-$10,949).</desc>
<rect x="0" y="0" width="720" height="364" fill="#ffffff" />
<text x="360" y="24" text-anchor="middle" font-family="-apple-system, BlinkMacSystemFont, 'Segoe UI', Roboto, sans-serif" font-size="16" font-weight="700" fill="#0f172a">Plumbing Service Cost by Major U.S. Metro (2026)</text>
<text x="360" y="44" text-anchor="middle" font-family="-apple-system, BlinkMacSystemFont, 'Segoe UI', Roboto, sans-serif" font-size="12" fill="#64748b">Based on BLS wage data and BEA regional cost-of-living indices</text>
<g stroke="#e2e8f0" stroke-width="1">
<line x1="154.0" y1="80" x2="154.0" y2="336" />
<line x1="235.6" y1="80" x2="235.6" y2="336" />
<line x1="317.2" y1="80" x2="317.2" y2="336" />
<line x1="398.8" y1="80" x2="398.8" y2="336" />
<line x1="480.4" y1="80" x2="480.4" y2="336" />
<line x1="562.0" y1="80" x2="562.0" y2="336" />
</g>
<g font-family="-apple-system, BlinkMacSystemFont, 'Segoe UI', Roboto, sans-serif" font-size="10" fill="#64748b">
<text x="154.0" y="76" text-anchor="middle">$0</text>
<text x="235.6" y="76" text-anchor="middle">$4,000</text>
<text x="317.2" y="76" text-anchor="middle">$8,000</text>
<text x="398.8" y="76" text-anchor="middle">$12,000</text>
<text x="480.4" y="76" text-anchor="middle">$16,000</text>
<text x="562.0" y="76" text-anchor="middle">$20,000</text>
</g>
<g font-family="-apple-system, BlinkMacSystemFont, 'Segoe UI', Roboto, sans-serif">
<text x="140" y="99" text-anchor="end" font-size="12" font-weight="600" fill="#0f172a">San Francisco, CA</text>
<rect x="166.0" y="88" width="211.4" height="14" fill="#bfdbfe" rx="3" />
<rect x="166.0" y="88" width="74.0" height="14" fill="#1d4ed8" rx="3" />
<line x1="166.0" y1="86" x2="166.0" y2="104" stroke="#1d4ed8" stroke-width="2" />
<line x1="377.4" y1="86" x2="377.4" y2="104" stroke="#1d4ed8" stroke-width="2" />
<text x="385.3596" y="99" font-size="11" fill="#0f172a">$588 – $10,949</text>
<text x="140" y="131" text-anchor="end" font-size="12" font-weight="600" fill="#0f172a">Seattle, WA</text>
<rect x="165.6" y="120" width="204.6" height="14" fill="#bfdbfe" rx="3" />
<rect x="165.6" y="120" width="71.6" height="14" fill="#1d4ed8" rx="3" />
<line x1="165.6" y1="118" x2="165.6" y2="136" stroke="#1d4ed8" stroke-width="2" />
<line x1="370.2" y1="118" x2="370.2" y2="136" stroke="#1d4ed8" stroke-width="2" />
<text x="378.24" y="131" font-size="11" fill="#0f172a">$570 – $10,600</text>
<text x="140" y="163" text-anchor="end" font-size="12" font-weight="600" fill="#0f172a">Boston, MA</text>
<rect x="165.1" y="152" width="194.8" height="14" fill="#bfdbfe" rx="3" />
<rect x="165.1" y="152" width="68.2" height="14" fill="#1d4ed8" rx="3" />
<line x1="165.1" y1="150" x2="165.1" y2="168" stroke="#1d4ed8" stroke-width="2" />
<line x1="359.9" y1="150" x2="359.9" y2="168" stroke="#1d4ed8" stroke-width="2" />
<text x="367.8564" y="163" font-size="11" fill="#0f172a">$542 – $10,091</text>
<text x="140" y="195" text-anchor="end" font-size="12" font-weight="600" fill="#0f172a">Denver, CO</text>
<rect x="163.9" y="184" width="174.3" height="14" fill="#bfdbfe" rx="3" />
<rect x="163.9" y="184" width="61.0" height="14" fill="#1d4ed8" rx="3" />
<line x1="163.9" y1="182" x2="163.9" y2="200" stroke="#1d4ed8" stroke-width="2" />
<line x1="338.2" y1="182" x2="338.2" y2="200" stroke="#1d4ed8" stroke-width="2" />
<text x="346.1916" y="195" font-size="11" fill="#0f172a">$485 – $9,029</text>
<text x="140" y="227" text-anchor="end" font-size="12" font-weight="600" fill="#0f172a">Atlanta, GA</text>
<rect x="163.2" y="216" width="161.7" height="14" fill="#bfdbfe" rx="3" />
<rect x="163.2" y="216" width="56.6" height="14" fill="#1d4ed8" rx="3" />
<line x1="163.2" y1="214" x2="163.2" y2="232" stroke="#1d4ed8" stroke-width="2" />
<line x1="324.9" y1="214" x2="324.9" y2="232" stroke="#1d4ed8" stroke-width="2" />
<text x="332.85" y="227" font-size="11" fill="#0f172a">$450 – $8,375</text>
<text x="140" y="259" text-anchor="end" font-size="12" font-weight="600" fill="#0f172a">Phoenix, AZ</text>
<rect x="163.2" y="248" width="161.5" height="14" fill="#bfdbfe" rx="3" />
<rect x="163.2" y="248" width="56.5" height="14" fill="#1d4ed8" rx="3" />
<line x1="163.2" y1="246" x2="163.2" y2="264" stroke="#1d4ed8" stroke-width="2" />
<line x1="324.7" y1="246" x2="324.7" y2="264" stroke="#1d4ed8" stroke-width="2" />
<text x="332.6868" y="259" font-size="11" fill="#0f172a">$450 – $8,367</text>
<text x="140" y="291" text-anchor="end" font-size="12" font-weight="600" fill="#0f172a">Houston, TX</text>
<rect x="163.1" y="280" width="159.7" height="14" fill="#bfdbfe" rx="3" />
<rect x="163.1" y="280" width="55.9" height="14" fill="#1d4ed8" rx="3" />
<line x1="163.1" y1="278" x2="163.1" y2="296" stroke="#1d4ed8" stroke-width="2" />
<line x1="322.8" y1="278" x2="322.8" y2="296" stroke="#1d4ed8" stroke-width="2" />
<text x="330.7692" y="291" font-size="11" fill="#0f172a">$445 – $8,273</text>
<text x="140" y="323" text-anchor="end" font-size="12" font-weight="600" fill="#0f172a">Memphis, TN</text>
<rect x="162.8" y="312" width="154.1" height="14" fill="#bfdbfe" rx="3" />
<rect x="162.8" y="312" width="53.9" height="14" fill="#1d4ed8" rx="3" />
<line x1="162.8" y1="310" x2="162.8" y2="328" stroke="#1d4ed8" stroke-width="2" />
<line x1="316.9" y1="310" x2="316.9" y2="328" stroke="#1d4ed8" stroke-width="2" />
<text x="324.8736" y="323" font-size="11" fill="#0f172a">$429 – $7,984</text>
</g>
<text x="360" y="358" text-anchor="middle" font-family="-apple-system, BlinkMacSystemFont, 'Segoe UI', Roboto, sans-serif" font-size="10" fill="#64748b">Source: Woogoro city-cost model, 2026 data. woogoro.com/methodology</text>
</svg>