<svg xmlns="http://www.w3.org/2000/svg" viewBox="0 0 720 364" width="720" height="364" role="img" aria-label="Roof Replacement price ranges across eight major U.S. metros in 2026, showing variation from Memphis, TN ($4,767-$28,600) to San Francisco, CA ($6,537-$39,219).">
<title>Roof Replacement Cost by Major U.S. Metro (2026)</title>
<desc>Roof Replacement price ranges across eight major U.S. metros in 2026, showing variation from Memphis, TN ($4,767-$28,600) to San Francisco, CA ($6,537-$39,219).</desc>
<rect x="0" y="0" width="720" height="364" fill="#ffffff" />
<text x="360" y="24" text-anchor="middle" font-family="-apple-system, BlinkMacSystemFont, 'Segoe UI', Roboto, sans-serif" font-size="16" font-weight="700" fill="#0f172a">Roof Replacement Cost by Major U.S. Metro (2026)</text>
<text x="360" y="44" text-anchor="middle" font-family="-apple-system, BlinkMacSystemFont, 'Segoe UI', Roboto, sans-serif" font-size="12" fill="#64748b">Based on BLS wage data and BEA regional cost-of-living indices</text>
<g stroke="#e2e8f0" stroke-width="1">
<line x1="154.0" y1="80" x2="154.0" y2="336" />
<line x1="235.6" y1="80" x2="235.6" y2="336" />
<line x1="317.2" y1="80" x2="317.2" y2="336" />
<line x1="398.8" y1="80" x2="398.8" y2="336" />
<line x1="480.4" y1="80" x2="480.4" y2="336" />
<line x1="562.0" y1="80" x2="562.0" y2="336" />
</g>
<g font-family="-apple-system, BlinkMacSystemFont, 'Segoe UI', Roboto, sans-serif" font-size="10" fill="#64748b">
<text x="154.0" y="76" text-anchor="middle">$0</text>
<text x="235.6" y="76" text-anchor="middle">$10,000</text>
<text x="317.2" y="76" text-anchor="middle">$20,000</text>
<text x="398.8" y="76" text-anchor="middle">$30,000</text>
<text x="480.4" y="76" text-anchor="middle">$40,000</text>
<text x="562.0" y="76" text-anchor="middle">$50,000</text>
</g>
<g font-family="-apple-system, BlinkMacSystemFont, 'Segoe UI', Roboto, sans-serif">
<text x="140" y="99" text-anchor="end" font-size="12" font-weight="600" fill="#0f172a">San Francisco, CA</text>
<rect x="207.3" y="88" width="266.7" height="14" fill="#bfdbfe" rx="3" />
<rect x="207.3" y="88" width="93.3" height="14" fill="#1d4ed8" rx="3" />
<line x1="207.3" y1="86" x2="207.3" y2="104" stroke="#1d4ed8" stroke-width="2" />
<line x1="474.0" y1="86" x2="474.0" y2="104" stroke="#1d4ed8" stroke-width="2" />
<text x="482.02704" y="99" font-size="11" fill="#0f172a">$6,537 – $39,219</text>
<text x="140" y="131" text-anchor="end" font-size="12" font-weight="600" fill="#0f172a">Seattle, WA</text>
<rect x="205.6" y="120" width="258.2" height="14" fill="#bfdbfe" rx="3" />
<rect x="205.6" y="120" width="90.4" height="14" fill="#1d4ed8" rx="3" />
<line x1="205.6" y1="118" x2="205.6" y2="136" stroke="#1d4ed8" stroke-width="2" />
<line x1="463.9" y1="118" x2="463.9" y2="136" stroke="#1d4ed8" stroke-width="2" />
<text x="471.85152" y="131" font-size="11" fill="#0f172a">$6,329 – $37,972</text>
<text x="140" y="163" text-anchor="end" font-size="12" font-weight="600" fill="#0f172a">Boston, MA</text>
<rect x="203.2" y="152" width="245.8" height="14" fill="#bfdbfe" rx="3" />
<rect x="203.2" y="152" width="86.0" height="14" fill="#1d4ed8" rx="3" />
<line x1="203.2" y1="150" x2="203.2" y2="168" stroke="#1d4ed8" stroke-width="2" />
<line x1="449.0" y1="150" x2="449.0" y2="168" stroke="#1d4ed8" stroke-width="2" />
<text x="456.95136" y="163" font-size="11" fill="#0f172a">$6,024 – $36,146</text>
<text x="140" y="195" text-anchor="end" font-size="12" font-weight="600" fill="#0f172a">Denver, CO</text>
<rect x="198.0" y="184" width="219.9" height="14" fill="#bfdbfe" rx="3" />
<rect x="198.0" y="184" width="77.0" height="14" fill="#1d4ed8" rx="3" />
<line x1="198.0" y1="182" x2="198.0" y2="200" stroke="#1d4ed8" stroke-width="2" />
<line x1="417.9" y1="182" x2="417.9" y2="200" stroke="#1d4ed8" stroke-width="2" />
<text x="425.91888" y="195" font-size="11" fill="#0f172a">$5,390 – $32,343</text>
<text x="140" y="227" text-anchor="end" font-size="12" font-weight="600" fill="#0f172a">Atlanta, GA</text>
<rect x="194.8" y="216" width="204.0" height="14" fill="#bfdbfe" rx="3" />
<rect x="194.8" y="216" width="71.4" height="14" fill="#1d4ed8" rx="3" />
<line x1="194.8" y1="214" x2="194.8" y2="232" stroke="#1d4ed8" stroke-width="2" />
<line x1="398.8" y1="214" x2="398.8" y2="232" stroke="#1d4ed8" stroke-width="2" />
<text x="406.79999999999995" y="227" font-size="11" fill="#0f172a">$5,000 – $30,000</text>
<text x="140" y="259" text-anchor="end" font-size="12" font-weight="600" fill="#0f172a">Phoenix, AZ</text>
<rect x="194.8" y="248" width="203.8" height="14" fill="#bfdbfe" rx="3" />
<rect x="194.8" y="248" width="71.3" height="14" fill="#1d4ed8" rx="3" />
<line x1="194.8" y1="246" x2="194.8" y2="264" stroke="#1d4ed8" stroke-width="2" />
<line x1="398.6" y1="246" x2="398.6" y2="264" stroke="#1d4ed8" stroke-width="2" />
<text x="406.5552" y="259" font-size="11" fill="#0f172a">$4,995 – $29,970</text>
<text x="140" y="291" text-anchor="end" font-size="12" font-weight="600" fill="#0f172a">Houston, TX</text>
<rect x="194.3" y="280" width="201.5" height="14" fill="#bfdbfe" rx="3" />
<rect x="194.3" y="280" width="70.5" height="14" fill="#1d4ed8" rx="3" />
<line x1="194.3" y1="278" x2="194.3" y2="296" stroke="#1d4ed8" stroke-width="2" />
<line x1="395.8" y1="278" x2="395.8" y2="296" stroke="#1d4ed8" stroke-width="2" />
<text x="403.8216" y="291" font-size="11" fill="#0f172a">$4,939 – $29,635</text>
<text x="140" y="323" text-anchor="end" font-size="12" font-weight="600" fill="#0f172a">Memphis, TN</text>
<rect x="192.9" y="312" width="194.5" height="14" fill="#bfdbfe" rx="3" />
<rect x="192.9" y="312" width="68.1" height="14" fill="#1d4ed8" rx="3" />
<line x1="192.9" y1="310" x2="192.9" y2="328" stroke="#1d4ed8" stroke-width="2" />
<line x1="387.4" y1="310" x2="387.4" y2="328" stroke="#1d4ed8" stroke-width="2" />
<text x="395.376" y="323" font-size="11" fill="#0f172a">$4,767 – $28,600</text>
</g>
<text x="360" y="358" text-anchor="middle" font-family="-apple-system, BlinkMacSystemFont, 'Segoe UI', Roboto, sans-serif" font-size="10" fill="#64748b">Source: Woogoro city-cost model, 2026 data. woogoro.com/methodology</text>
</svg>