<svg xmlns="http://www.w3.org/2000/svg" viewBox="0 0 720 364" width="720" height="364" role="img" aria-label="Siding Installation price ranges across eight major U.S. metros in 2026, showing variation from Memphis, TN ($5,625-$19,734) to San Francisco, CA ($7,713-$27,061).">
<title>Siding Installation Cost by Major U.S. Metro (2026)</title>
<desc>Siding Installation price ranges across eight major U.S. metros in 2026, showing variation from Memphis, TN ($5,625-$19,734) to San Francisco, CA ($7,713-$27,061).</desc>
<rect x="0" y="0" width="720" height="364" fill="#ffffff" />
<text x="360" y="24" text-anchor="middle" font-family="-apple-system, BlinkMacSystemFont, 'Segoe UI', Roboto, sans-serif" font-size="16" font-weight="700" fill="#0f172a">Siding Installation Cost by Major U.S. Metro (2026)</text>
<text x="360" y="44" text-anchor="middle" font-family="-apple-system, BlinkMacSystemFont, 'Segoe UI', Roboto, sans-serif" font-size="12" fill="#64748b">Based on BLS wage data and BEA regional cost-of-living indices</text>
<g stroke="#e2e8f0" stroke-width="1">
<line x1="154.0" y1="80" x2="154.0" y2="336" />
<line x1="235.6" y1="80" x2="235.6" y2="336" />
<line x1="317.2" y1="80" x2="317.2" y2="336" />
<line x1="398.8" y1="80" x2="398.8" y2="336" />
<line x1="480.4" y1="80" x2="480.4" y2="336" />
<line x1="562.0" y1="80" x2="562.0" y2="336" />
</g>
<g font-family="-apple-system, BlinkMacSystemFont, 'Segoe UI', Roboto, sans-serif" font-size="10" fill="#64748b">
<text x="154.0" y="76" text-anchor="middle">$0</text>
<text x="235.6" y="76" text-anchor="middle">$10,000</text>
<text x="317.2" y="76" text-anchor="middle">$20,000</text>
<text x="398.8" y="76" text-anchor="middle">$30,000</text>
<text x="480.4" y="76" text-anchor="middle">$40,000</text>
<text x="562.0" y="76" text-anchor="middle">$50,000</text>
</g>
<g font-family="-apple-system, BlinkMacSystemFont, 'Segoe UI', Roboto, sans-serif">
<text x="140" y="99" text-anchor="end" font-size="12" font-weight="600" fill="#0f172a">San Francisco, CA</text>
<rect x="216.9" y="88" width="157.9" height="14" fill="#bfdbfe" rx="3" />
<rect x="216.9" y="88" width="55.3" height="14" fill="#1d4ed8" rx="3" />
<line x1="216.9" y1="86" x2="216.9" y2="104" stroke="#1d4ed8" stroke-width="2" />
<line x1="374.8" y1="86" x2="374.8" y2="104" stroke="#1d4ed8" stroke-width="2" />
<text x="382.81776" y="99" font-size="11" fill="#0f172a">$7,713 – $27,061</text>
<text x="140" y="131" text-anchor="end" font-size="12" font-weight="600" fill="#0f172a">Seattle, WA</text>
<rect x="214.9" y="120" width="152.9" height="14" fill="#bfdbfe" rx="3" />
<rect x="214.9" y="120" width="53.5" height="14" fill="#1d4ed8" rx="3" />
<line x1="214.9" y1="118" x2="214.9" y2="136" stroke="#1d4ed8" stroke-width="2" />
<line x1="367.8" y1="118" x2="367.8" y2="136" stroke="#1d4ed8" stroke-width="2" />
<text x="375.79200000000003" y="131" font-size="11" fill="#0f172a">$7,468 – $26,200</text>
<text x="140" y="163" text-anchor="end" font-size="12" font-weight="600" fill="#0f172a">Boston, MA</text>
<rect x="212.0" y="152" width="145.5" height="14" fill="#bfdbfe" rx="3" />
<rect x="212.0" y="152" width="50.9" height="14" fill="#1d4ed8" rx="3" />
<line x1="212.0" y1="150" x2="212.0" y2="168" stroke="#1d4ed8" stroke-width="2" />
<line x1="357.5" y1="150" x2="357.5" y2="168" stroke="#1d4ed8" stroke-width="2" />
<text x="365.51856" y="163" font-size="11" fill="#0f172a">$7,109 – $24,941</text>
<text x="140" y="195" text-anchor="end" font-size="12" font-weight="600" fill="#0f172a">Denver, CO</text>
<rect x="205.9" y="184" width="130.2" height="14" fill="#bfdbfe" rx="3" />
<rect x="205.9" y="184" width="45.6" height="14" fill="#1d4ed8" rx="3" />
<line x1="205.9" y1="182" x2="205.9" y2="200" stroke="#1d4ed8" stroke-width="2" />
<line x1="336.1" y1="182" x2="336.1" y2="200" stroke="#1d4ed8" stroke-width="2" />
<text x="344.10672" y="195" font-size="11" fill="#0f172a">$6,361 – $22,317</text>
<text x="140" y="227" text-anchor="end" font-size="12" font-weight="600" fill="#0f172a">Atlanta, GA</text>
<rect x="202.1" y="216" width="120.8" height="14" fill="#bfdbfe" rx="3" />
<rect x="202.1" y="216" width="42.3" height="14" fill="#1d4ed8" rx="3" />
<line x1="202.1" y1="214" x2="202.1" y2="232" stroke="#1d4ed8" stroke-width="2" />
<line x1="322.9" y1="214" x2="322.9" y2="232" stroke="#1d4ed8" stroke-width="2" />
<text x="330.912" y="227" font-size="11" fill="#0f172a">$5,900 – $20,700</text>
<text x="140" y="259" text-anchor="end" font-size="12" font-weight="600" fill="#0f172a">Phoenix, AZ</text>
<rect x="202.1" y="248" width="120.6" height="14" fill="#bfdbfe" rx="3" />
<rect x="202.1" y="248" width="42.2" height="14" fill="#1d4ed8" rx="3" />
<line x1="202.1" y1="246" x2="202.1" y2="264" stroke="#1d4ed8" stroke-width="2" />
<line x1="322.7" y1="246" x2="322.7" y2="264" stroke="#1d4ed8" stroke-width="2" />
<text x="330.74064" y="259" font-size="11" fill="#0f172a">$5,894 – $20,679</text>
<text x="140" y="291" text-anchor="end" font-size="12" font-weight="600" fill="#0f172a">Houston, TX</text>
<rect x="201.6" y="280" width="119.3" height="14" fill="#bfdbfe" rx="3" />
<rect x="201.6" y="280" width="41.8" height="14" fill="#1d4ed8" rx="3" />
<line x1="201.6" y1="278" x2="201.6" y2="296" stroke="#1d4ed8" stroke-width="2" />
<line x1="320.9" y1="278" x2="320.9" y2="296" stroke="#1d4ed8" stroke-width="2" />
<text x="328.85568" y="291" font-size="11" fill="#0f172a">$5,828 – $20,448</text>
<text x="140" y="323" text-anchor="end" font-size="12" font-weight="600" fill="#0f172a">Memphis, TN</text>
<rect x="199.9" y="312" width="115.1" height="14" fill="#bfdbfe" rx="3" />
<rect x="199.9" y="312" width="40.3" height="14" fill="#1d4ed8" rx="3" />
<line x1="199.9" y1="310" x2="199.9" y2="328" stroke="#1d4ed8" stroke-width="2" />
<line x1="315.0" y1="310" x2="315.0" y2="328" stroke="#1d4ed8" stroke-width="2" />
<text x="323.02944" y="323" font-size="11" fill="#0f172a">$5,625 – $19,734</text>
</g>
<text x="360" y="358" text-anchor="middle" font-family="-apple-system, BlinkMacSystemFont, 'Segoe UI', Roboto, sans-serif" font-size="10" fill="#64748b">Source: Woogoro city-cost model, 2026 data. woogoro.com/methodology</text>
</svg>