<svg xmlns="http://www.w3.org/2000/svg" viewBox="0 0 720 364" width="720" height="364" role="img" aria-label="Solar Installation price ranges across eight major U.S. metros in 2026, showing variation from Memphis, TN ($11,993-$28,600) to San Francisco, CA ($16,446-$39,219).">
<title>Solar Installation Cost by Major U.S. Metro (2026)</title>
<desc>Solar Installation price ranges across eight major U.S. metros in 2026, showing variation from Memphis, TN ($11,993-$28,600) to San Francisco, CA ($16,446-$39,219).</desc>
<rect x="0" y="0" width="720" height="364" fill="#ffffff" />
<text x="360" y="24" text-anchor="middle" font-family="-apple-system, BlinkMacSystemFont, 'Segoe UI', Roboto, sans-serif" font-size="16" font-weight="700" fill="#0f172a">Solar Installation Cost by Major U.S. Metro (2026)</text>
<text x="360" y="44" text-anchor="middle" font-family="-apple-system, BlinkMacSystemFont, 'Segoe UI', Roboto, sans-serif" font-size="12" fill="#64748b">Based on BLS wage data and BEA regional cost-of-living indices</text>
<g stroke="#e2e8f0" stroke-width="1">
<line x1="154.0" y1="80" x2="154.0" y2="336" />
<line x1="235.6" y1="80" x2="235.6" y2="336" />
<line x1="317.2" y1="80" x2="317.2" y2="336" />
<line x1="398.8" y1="80" x2="398.8" y2="336" />
<line x1="480.4" y1="80" x2="480.4" y2="336" />
<line x1="562.0" y1="80" x2="562.0" y2="336" />
</g>
<g font-family="-apple-system, BlinkMacSystemFont, 'Segoe UI', Roboto, sans-serif" font-size="10" fill="#64748b">
<text x="154.0" y="76" text-anchor="middle">$0</text>
<text x="235.6" y="76" text-anchor="middle">$10,000</text>
<text x="317.2" y="76" text-anchor="middle">$20,000</text>
<text x="398.8" y="76" text-anchor="middle">$30,000</text>
<text x="480.4" y="76" text-anchor="middle">$40,000</text>
<text x="562.0" y="76" text-anchor="middle">$50,000</text>
</g>
<g font-family="-apple-system, BlinkMacSystemFont, 'Segoe UI', Roboto, sans-serif">
<text x="140" y="99" text-anchor="end" font-size="12" font-weight="600" fill="#0f172a">San Francisco, CA</text>
<rect x="288.2" y="88" width="185.8" height="14" fill="#bfdbfe" rx="3" />
<rect x="288.2" y="88" width="65.0" height="14" fill="#1d4ed8" rx="3" />
<line x1="288.2" y1="86" x2="288.2" y2="104" stroke="#1d4ed8" stroke-width="2" />
<line x1="474.0" y1="86" x2="474.0" y2="104" stroke="#1d4ed8" stroke-width="2" />
<text x="482.02704" y="99" font-size="11" fill="#0f172a">$16,446 – $39,219</text>
<text x="140" y="131" text-anchor="end" font-size="12" font-weight="600" fill="#0f172a">Seattle, WA</text>
<rect x="283.9" y="120" width="179.9" height="14" fill="#bfdbfe" rx="3" />
<rect x="283.9" y="120" width="63.0" height="14" fill="#1d4ed8" rx="3" />
<line x1="283.9" y1="118" x2="283.9" y2="136" stroke="#1d4ed8" stroke-width="2" />
<line x1="463.9" y1="118" x2="463.9" y2="136" stroke="#1d4ed8" stroke-width="2" />
<text x="471.85152" y="131" font-size="11" fill="#0f172a">$15,923 – $37,972</text>
<text x="140" y="163" text-anchor="end" font-size="12" font-weight="600" fill="#0f172a">Boston, MA</text>
<rect x="277.7" y="152" width="171.3" height="14" fill="#bfdbfe" rx="3" />
<rect x="277.7" y="152" width="59.9" height="14" fill="#1d4ed8" rx="3" />
<line x1="277.7" y1="150" x2="277.7" y2="168" stroke="#1d4ed8" stroke-width="2" />
<line x1="449.0" y1="150" x2="449.0" y2="168" stroke="#1d4ed8" stroke-width="2" />
<text x="456.95136" y="163" font-size="11" fill="#0f172a">$15,157 – $36,146</text>
<text x="140" y="195" text-anchor="end" font-size="12" font-weight="600" fill="#0f172a">Denver, CO</text>
<rect x="264.7" y="184" width="153.3" height="14" fill="#bfdbfe" rx="3" />
<rect x="264.7" y="184" width="53.6" height="14" fill="#1d4ed8" rx="3" />
<line x1="264.7" y1="182" x2="264.7" y2="200" stroke="#1d4ed8" stroke-width="2" />
<line x1="417.9" y1="182" x2="417.9" y2="200" stroke="#1d4ed8" stroke-width="2" />
<text x="425.91888" y="195" font-size="11" fill="#0f172a">$13,562 – $32,343</text>
<text x="140" y="227" text-anchor="end" font-size="12" font-weight="600" fill="#0f172a">Atlanta, GA</text>
<rect x="256.7" y="216" width="142.1" height="14" fill="#bfdbfe" rx="3" />
<rect x="256.7" y="216" width="49.8" height="14" fill="#1d4ed8" rx="3" />
<line x1="256.7" y1="214" x2="256.7" y2="232" stroke="#1d4ed8" stroke-width="2" />
<line x1="398.8" y1="214" x2="398.8" y2="232" stroke="#1d4ed8" stroke-width="2" />
<text x="406.79999999999995" y="227" font-size="11" fill="#0f172a">$12,580 – $30,000</text>
<text x="140" y="259" text-anchor="end" font-size="12" font-weight="600" fill="#0f172a">Phoenix, AZ</text>
<rect x="256.5" y="248" width="142.0" height="14" fill="#bfdbfe" rx="3" />
<rect x="256.5" y="248" width="49.7" height="14" fill="#1d4ed8" rx="3" />
<line x1="256.5" y1="246" x2="256.5" y2="264" stroke="#1d4ed8" stroke-width="2" />
<line x1="398.6" y1="246" x2="398.6" y2="264" stroke="#1d4ed8" stroke-width="2" />
<text x="406.5552" y="259" font-size="11" fill="#0f172a">$12,567 – $29,970</text>
<text x="140" y="291" text-anchor="end" font-size="12" font-weight="600" fill="#0f172a">Houston, TX</text>
<rect x="255.4" y="280" width="140.4" height="14" fill="#bfdbfe" rx="3" />
<rect x="255.4" y="280" width="49.1" height="14" fill="#1d4ed8" rx="3" />
<line x1="255.4" y1="278" x2="255.4" y2="296" stroke="#1d4ed8" stroke-width="2" />
<line x1="395.8" y1="278" x2="395.8" y2="296" stroke="#1d4ed8" stroke-width="2" />
<text x="403.8216" y="291" font-size="11" fill="#0f172a">$12,427 – $29,635</text>
<text x="140" y="323" text-anchor="end" font-size="12" font-weight="600" fill="#0f172a">Memphis, TN</text>
<rect x="251.9" y="312" width="135.5" height="14" fill="#bfdbfe" rx="3" />
<rect x="251.9" y="312" width="47.4" height="14" fill="#1d4ed8" rx="3" />
<line x1="251.9" y1="310" x2="251.9" y2="328" stroke="#1d4ed8" stroke-width="2" />
<line x1="387.4" y1="310" x2="387.4" y2="328" stroke="#1d4ed8" stroke-width="2" />
<text x="395.376" y="323" font-size="11" fill="#0f172a">$11,993 – $28,600</text>
</g>
<text x="360" y="358" text-anchor="middle" font-family="-apple-system, BlinkMacSystemFont, 'Segoe UI', Roboto, sans-serif" font-size="10" fill="#64748b">Source: Woogoro city-cost model, 2026 data. woogoro.com/methodology</text>
</svg>